M48
;GenerationSoftware,Autodesk,EAGLE,9.7.0*%
;CreationDate,2026-01-30T16:23:02Z*%
FMAT,2
ICI,OFF
METRIC,TZ,000.000
T9C0.350
T8C0.830
T7C0.981
T6C1.000
T5C1.016
T4C1.500
T3C1.700
T2C4.000
T1C4.100
%
G90
M71
T1
X68580Y-8890
X87630Y-66040
X49530Y-46990
X68580Y-46990
X68580Y-66040
X87630Y-46990
X134620Y-55880
X49530Y-66040
X153670Y-55880
X153670Y-36830
X16256Y-66040
X134620Y-36830
X87630Y-27940
X16510Y-46990
X68580Y-27940
X49530Y-27940
X16510Y-8890
X16510Y-27940
X153670Y-17780
X49530Y-8890
X134620Y-17780
X87630Y-8890
T2
X180000Y-70000
X5000Y-5000
X5000Y-70000
X180000Y-5000
T3
X21590Y-46990
X11430Y-46990
X82550Y-8890
X63500Y-8890
X139700Y-17780
X129540Y-17780
X73660Y-8890
X158750Y-17780
X148590Y-17780
X44450Y-8890
X11430Y-27940
X21590Y-27940
X54610Y-8890
X54610Y-27940
X44450Y-27940
X21590Y-8890
X73660Y-27940
X63500Y-27940
X11430Y-8890
X92710Y-27940
X82550Y-27940
X11176Y-66040
X139700Y-36830
X129540Y-36830
X21336Y-66040
X158750Y-36830
X148590Y-36830
X54610Y-66040
X158750Y-55880
X148590Y-55880
X44450Y-66040
X139700Y-55880
X129540Y-55880
X73660Y-66040
X92710Y-46990
X82550Y-46990
X63500Y-66040
X73660Y-46990
X63500Y-46990
X92710Y-66040
X54610Y-46990
X44450Y-46990
X82550Y-66040
X92710Y-8890
T4
X12700Y-6350
X19050Y-3810
X91440Y-49530
X85090Y-52070
X72390Y-49530
X66040Y-52070
X53340Y-49530
X46990Y-52070
X12700Y-44450
X19050Y-41910
X12446Y-63500
X18796Y-60960
X53340Y-68580
X46990Y-71120
X72390Y-68580
X66040Y-71120
X91440Y-68580
X85090Y-71120
X138430Y-58420
X151130Y-60960
X157480Y-58420
X151130Y-41910
X157480Y-39370
X132080Y-41910
X138430Y-39370
X85090Y-33020
X91440Y-30480
X66040Y-33020
X72390Y-30480
X46990Y-33020
X53340Y-30480
X19050Y-22860
X12700Y-25400
X151130Y-22860
X157480Y-20320
X132080Y-22860
X138430Y-20320
X85090Y-13970
X91440Y-11430
X66040Y-13970
X72390Y-11430
X46990Y-13970
X53340Y-11430
X132080Y-60960
T5
X171507Y-67081
X173385Y-38166
X173385Y-35626
X170845Y-35626
X173385Y-33086
X170845Y-33086
X173385Y-30546
X170845Y-30546
X173385Y-28006
X170845Y-28006
X173385Y-25466
X170845Y-25466
X173385Y-22926
X170845Y-22926
X173385Y-20386
X170845Y-20386
X173385Y-17846
X170845Y-17846
X173385Y-15306
X170845Y-15306
X173385Y-12766
X170845Y-12766
X173385Y-10226
X170845Y-10226
X173385Y-7686
X170845Y-7686
X173385Y-5146
X170845Y-5146
X171541Y-60579
X170845Y-2606
X176028Y-67105
X170845Y-66
X122008Y6002
X124548Y6002
X127088Y6002
X129628Y6002
X132168Y6002
X167098Y9627
X169638Y9627
X172178Y9627
X174718Y9627
X177258Y9627
X176062Y-60602
X173385Y-2606
X173385Y-66
X43124Y4441
X45664Y4441
X48204Y4441
X50744Y4441
X53284Y4441
X55824Y4441
X58364Y4441
X60904Y4441
X173385Y-48326
X170845Y-48326
X170845Y-38166
X170845Y-45786
X173385Y-43246
X170845Y-43246
X173385Y-40706
X170845Y-40706
X173385Y-45786
T6
X78376Y-46990
X78740Y-19050
X120852Y-17010
X120852Y-14470
X120852Y-11930
X120852Y-9390
X120852Y-6850
X120852Y-4310
X120852Y-24630
X120852Y-27170
X120852Y-29710
X120852Y-32250
X105612Y-32250
X105612Y-29710
X105612Y-27170
X105612Y-24630
X97870Y-57150
X97870Y-46990
X143510Y-60960
X143510Y-50800
X162560Y-60911
X162560Y-50751
X167367Y-41376
X162833Y-32284
X165100Y-25400
X165100Y-15240
X105612Y-22090
X105612Y-19550
X105612Y-17010
X105612Y-14470
X105612Y-11930
X105612Y-9390
X105612Y-6850
X105612Y-4310
X143510Y-43180
X143510Y-33020
X143510Y-24130
X143510Y-13970
X97790Y-38100
X97790Y-27940
X96520Y-19050
X96520Y-8890
X78740Y-38100
X78740Y-27940
X59690Y-38100
X59690Y-27940
X97790Y-71120
X97790Y-60960
X78740Y-71120
X78740Y-60960
X59690Y-70690
X59690Y-60530
X35060Y-73230
X24900Y-73230
X6850Y-55880
X120852Y-22090
X6850Y-45720
X60308Y-57230
X60308Y-47070
X78376Y-57150
X7120Y-36830
X7120Y-26670
X7120Y-8890
X7120Y-19050
X59690Y-7620
X59690Y-17780
X78740Y-8890
X120852Y-19550
T7
X173984Y-57762
X173984Y-55222
X27940Y-8890
X30480Y-8890
X27940Y-27940
X30480Y-27940
X27940Y-46990
X30480Y-46990
X27940Y-66040
X30480Y-66040
X154940Y-6350
X152400Y-6350
T8
X180520Y-56746
X180520Y-44986
X28410Y-3810
X40170Y-3810
X28410Y-22860
X40170Y-22860
X28410Y-41910
X40170Y-41910
X168910Y-65570
X168910Y-53810
X28410Y-60960
X40170Y-60960
T9
X123190Y-36096
X119380Y-39370
X177165Y-18415
X119380Y-35002
X120650Y-38100
X114300Y-41910
X105410Y-46990
X114300Y-46990
X137160Y-24130
X113030Y-6350
X99060Y-3810
X96520Y-2540
X97790Y-2540
X115570Y-46990
X137160Y-25400
X102870Y-2540
X109855Y-2540
X167005Y1270
M30