G04 EAGLE Gerber RS-274X export*
G75*
%MOMM*%
%FSLAX34Y34*%
%LPD*%
%INTop Copper*%
%IPPOS*%
%AMOC8*
5,1,8,0,0,1.08239X$1,22.5*%
G01*
G04 Define Apertures*
%ADD10C,1.581000*%
%ADD11C,1.524000*%
%ADD12C,1.879600*%
%ADD13C,1.430000*%
%ADD14C,1.508000*%
%ADD15C,2.540000*%
%ADD16C,0.609600*%
%ADD17C,0.756400*%
%ADD18C,0.406400*%
G36*
X1839235Y-127895D02*
X1838840Y-127982D01*
X1838443Y-127908D01*
X1838106Y-127685D01*
X1835194Y-124773D01*
X1834976Y-124450D01*
X1834896Y-124054D01*
X1834896Y-123114D01*
X1833968Y-120873D01*
X1794920Y-81826D01*
X1794784Y-81657D01*
X1794637Y-81280D01*
X1794649Y-80876D01*
X1794818Y-80508D01*
X1795117Y-80236D01*
X1795498Y-80101D01*
X1795902Y-80126D01*
X1796029Y-80160D01*
X1803971Y-80160D01*
X1811641Y-78105D01*
X1818519Y-74134D01*
X1824134Y-68519D01*
X1828105Y-61641D01*
X1830160Y-53971D01*
X1830160Y-46029D01*
X1828105Y-38359D01*
X1824134Y-31481D01*
X1818519Y-25866D01*
X1811641Y-21895D01*
X1803971Y-19840D01*
X1796029Y-19840D01*
X1788359Y-21895D01*
X1781481Y-25866D01*
X1775866Y-31481D01*
X1771895Y-38359D01*
X1769840Y-46029D01*
X1769840Y-50970D01*
X1769777Y-51321D01*
X1769565Y-51665D01*
X1769235Y-51899D01*
X1768840Y-51986D01*
X1768443Y-51912D01*
X1768106Y-51688D01*
X1747163Y-30745D01*
X1746949Y-30431D01*
X1746865Y-30035D01*
X1746942Y-29638D01*
X1747316Y-28736D01*
X1747316Y-23380D01*
X1745267Y-18432D01*
X1741480Y-14646D01*
X1738646Y-13472D01*
X1738346Y-13280D01*
X1738109Y-12952D01*
X1738019Y-12558D01*
X1738090Y-12159D01*
X1738311Y-11821D01*
X1738646Y-11595D01*
X1740616Y-10779D01*
X1743975Y-7420D01*
X1745792Y-3033D01*
X1745792Y-1420D01*
X1733092Y-1420D01*
X1733092Y11280D01*
X1731479Y11280D01*
X1727092Y9463D01*
X1723734Y6104D01*
X1722918Y4134D01*
X1722725Y3834D01*
X1722397Y3597D01*
X1722003Y3507D01*
X1721605Y3578D01*
X1721266Y3799D01*
X1721040Y4134D01*
X1719867Y6968D01*
X1716080Y10755D01*
X1711132Y12804D01*
X1709617Y12804D01*
X1709266Y12867D01*
X1708922Y13079D01*
X1708688Y13409D01*
X1708602Y13804D01*
X1708676Y14201D01*
X1708899Y14538D01*
X1726948Y32587D01*
X1727876Y34828D01*
X1727876Y77852D01*
X1727947Y78226D01*
X1728168Y78564D01*
X1728315Y78664D01*
X1731685Y82034D01*
X1733541Y86515D01*
X1733734Y86815D01*
X1734061Y87052D01*
X1734456Y87142D01*
X1734854Y87071D01*
X1735193Y86850D01*
X1735419Y86515D01*
X1737275Y82034D01*
X1740562Y78747D01*
X1744856Y76968D01*
X1749504Y76968D01*
X1753799Y78747D01*
X1757085Y82034D01*
X1758864Y86328D01*
X1758864Y106216D01*
X1757085Y110511D01*
X1754490Y113106D01*
X1754286Y113398D01*
X1754193Y113792D01*
X1754261Y114190D01*
X1754479Y114531D01*
X1754812Y114760D01*
X1755209Y114840D01*
X1767354Y114840D01*
X1767697Y114780D01*
X1768043Y114570D01*
X1768279Y114243D01*
X1768369Y113848D01*
X1768298Y113450D01*
X1768078Y113111D01*
X1767742Y112885D01*
X1766825Y112505D01*
X1763967Y109647D01*
X1762420Y105913D01*
X1762420Y97034D01*
X1782740Y97034D01*
X1782740Y105913D01*
X1781193Y109647D01*
X1778335Y112505D01*
X1777418Y112885D01*
X1777123Y113072D01*
X1776884Y113398D01*
X1776791Y113792D01*
X1776859Y114190D01*
X1777077Y114531D01*
X1777410Y114760D01*
X1777806Y114840D01*
X1780000Y114840D01*
X1780263Y114805D01*
X1784675Y113623D01*
X1785130Y113360D01*
X1788360Y110130D01*
X1788623Y109675D01*
X1789805Y105263D01*
X1789840Y105000D01*
X1789840Y-2021D01*
X1791387Y-5755D01*
X1794245Y-8613D01*
X1797979Y-10160D01*
X1800000Y-10160D01*
X1800159Y-10173D01*
X1812156Y-12073D01*
X1812459Y-12171D01*
X1823281Y-17685D01*
X1823539Y-17872D01*
X1832128Y-26461D01*
X1832315Y-26719D01*
X1837829Y-37541D01*
X1837927Y-37844D01*
X1839828Y-49841D01*
X1839840Y-50000D01*
X1839840Y-126966D01*
X1839777Y-127317D01*
X1839565Y-127661D01*
X1839235Y-127895D01*
G37*
%LPC*%
G36*
X1773342Y78492D02*
X1774601Y78492D01*
X1778335Y80039D01*
X1781193Y82897D01*
X1782740Y86631D01*
X1782740Y95510D01*
X1773342Y95510D01*
X1773342Y78492D01*
G37*
G36*
X1770559Y78492D02*
X1771818Y78492D01*
X1771818Y95510D01*
X1762420Y95510D01*
X1762420Y86631D01*
X1763967Y82897D01*
X1766825Y80039D01*
X1770559Y78492D01*
G37*
G36*
X1734616Y104D02*
X1745792Y104D01*
X1745792Y1717D01*
X1743975Y6104D01*
X1740616Y9463D01*
X1736229Y11280D01*
X1734616Y11280D01*
X1734616Y104D01*
G37*
%LPD*%
G36*
X1263982Y-6016D02*
X1263585Y-6096D01*
X1209993Y-6096D01*
X1209634Y-6031D01*
X1209292Y-5815D01*
X1209060Y-5484D01*
X1208977Y-5088D01*
X1209054Y-4691D01*
X1210160Y-2021D01*
X1210160Y45495D01*
X1210223Y45846D01*
X1210435Y46190D01*
X1210765Y46424D01*
X1211160Y46511D01*
X1211557Y46437D01*
X1211894Y46214D01*
X1214322Y43786D01*
X1218056Y42239D01*
X1219315Y42239D01*
X1219315Y77799D01*
X1218554Y77799D01*
X1218203Y77862D01*
X1217859Y78074D01*
X1217625Y78404D01*
X1217538Y78799D01*
X1217612Y79197D01*
X1217836Y79534D01*
X1222339Y84038D01*
X1222596Y84224D01*
X1230632Y88319D01*
X1230934Y88417D01*
X1239841Y89828D01*
X1240000Y89840D01*
X1410000Y89840D01*
X1410159Y89828D01*
X1419066Y88417D01*
X1419368Y88319D01*
X1427404Y84224D01*
X1427661Y84038D01*
X1434038Y77661D01*
X1434224Y77404D01*
X1438319Y69368D01*
X1438417Y69066D01*
X1439828Y60159D01*
X1439840Y60000D01*
X1439840Y-2021D01*
X1440946Y-4691D01*
X1441023Y-5048D01*
X1440955Y-5446D01*
X1440737Y-5787D01*
X1440404Y-6016D01*
X1440007Y-6096D01*
X1286575Y-6096D01*
X1286193Y-6022D01*
X1285856Y-5798D01*
X1252010Y28048D01*
X1251792Y28370D01*
X1251712Y28767D01*
X1251712Y41690D01*
X1251786Y42071D01*
X1252010Y42408D01*
X1255382Y45781D01*
X1257238Y50262D01*
X1257430Y50562D01*
X1257758Y50799D01*
X1258153Y50889D01*
X1258551Y50818D01*
X1258890Y50597D01*
X1259116Y50262D01*
X1260972Y45781D01*
X1264258Y42494D01*
X1268553Y40715D01*
X1273201Y40715D01*
X1277495Y42494D01*
X1280782Y45781D01*
X1282638Y50262D01*
X1282830Y50562D01*
X1283158Y50799D01*
X1283553Y50889D01*
X1283951Y50818D01*
X1284290Y50597D01*
X1284516Y50262D01*
X1286372Y45781D01*
X1289658Y42494D01*
X1293953Y40715D01*
X1298601Y40715D01*
X1302895Y42494D01*
X1306182Y45781D01*
X1308038Y50262D01*
X1308230Y50562D01*
X1308558Y50799D01*
X1308953Y50889D01*
X1309351Y50818D01*
X1309690Y50597D01*
X1309916Y50262D01*
X1311772Y45781D01*
X1315058Y42494D01*
X1319353Y40715D01*
X1324001Y40715D01*
X1328295Y42494D01*
X1331582Y45781D01*
X1333361Y50075D01*
X1333361Y69964D01*
X1331582Y74258D01*
X1328295Y77545D01*
X1324001Y79323D01*
X1319353Y79323D01*
X1315058Y77545D01*
X1311772Y74258D01*
X1309916Y69777D01*
X1309723Y69476D01*
X1309395Y69240D01*
X1309001Y69150D01*
X1308603Y69221D01*
X1308264Y69442D01*
X1308038Y69777D01*
X1306182Y74258D01*
X1302895Y77545D01*
X1298601Y79323D01*
X1293953Y79323D01*
X1289658Y77545D01*
X1286372Y74258D01*
X1284516Y69777D01*
X1284323Y69476D01*
X1283995Y69240D01*
X1283601Y69150D01*
X1283203Y69221D01*
X1282864Y69442D01*
X1282638Y69777D01*
X1280782Y74258D01*
X1277495Y77545D01*
X1273201Y79323D01*
X1268553Y79323D01*
X1264258Y77545D01*
X1260972Y74258D01*
X1259116Y69777D01*
X1258923Y69476D01*
X1258595Y69240D01*
X1258201Y69150D01*
X1257803Y69221D01*
X1257464Y69442D01*
X1257238Y69777D01*
X1255382Y74258D01*
X1252095Y77545D01*
X1247801Y79323D01*
X1243153Y79323D01*
X1238858Y77545D01*
X1235572Y74258D01*
X1233793Y69964D01*
X1233793Y50075D01*
X1235572Y45781D01*
X1237190Y44162D01*
X1237408Y43840D01*
X1237488Y43444D01*
X1237488Y23985D01*
X1238571Y21371D01*
X1264304Y-4362D01*
X1264508Y-4654D01*
X1264601Y-5048D01*
X1264533Y-5446D01*
X1264315Y-5787D01*
X1263982Y-6016D01*
G37*
%LPC*%
G36*
X1220839Y60781D02*
X1230237Y60781D01*
X1230237Y69660D01*
X1228690Y73395D01*
X1225832Y76253D01*
X1222098Y77799D01*
X1220839Y77799D01*
X1220839Y60781D01*
G37*
G36*
X1220839Y42239D02*
X1222098Y42239D01*
X1225832Y43786D01*
X1228690Y46644D01*
X1230237Y50379D01*
X1230237Y59257D01*
X1220839Y59257D01*
X1220839Y42239D01*
G37*
%LPD*%
G36*
X365750Y-120824D02*
X365354Y-120904D01*
X282346Y-120904D01*
X281965Y-120830D01*
X281627Y-120606D01*
X260394Y-99373D01*
X260176Y-99050D01*
X260096Y-98654D01*
X260096Y-49587D01*
X259168Y-47347D01*
X223715Y-11894D01*
X223511Y-11602D01*
X223418Y-11208D01*
X223486Y-10810D01*
X223704Y-10469D01*
X224038Y-10240D01*
X224434Y-10160D01*
X292021Y-10160D01*
X295755Y-8613D01*
X298613Y-5755D01*
X300160Y-2021D01*
X300160Y30000D01*
X300173Y30159D01*
X301583Y39066D01*
X301682Y39368D01*
X305776Y47404D01*
X305963Y47661D01*
X312339Y54038D01*
X312596Y54224D01*
X320632Y58319D01*
X320934Y58417D01*
X329841Y59828D01*
X330000Y59840D01*
X420309Y59840D01*
X420668Y59775D01*
X421011Y59559D01*
X421242Y59228D01*
X421325Y58832D01*
X421248Y58435D01*
X419557Y54352D01*
X419557Y34464D01*
X421336Y30169D01*
X423831Y27674D01*
X424048Y27352D01*
X424129Y26955D01*
X424129Y-26255D01*
X425212Y-28869D01*
X444720Y-48378D01*
X444924Y-48670D01*
X445017Y-49064D01*
X444949Y-49462D01*
X444731Y-49803D01*
X444398Y-50032D01*
X444001Y-50112D01*
X437879Y-50112D01*
X435639Y-51040D01*
X366073Y-120606D01*
X365750Y-120824D01*
G37*
%LPC*%
G36*
X399469Y-49314D02*
X403931Y-49314D01*
X408052Y-47607D01*
X411207Y-44452D01*
X412914Y-40331D01*
X412914Y-35869D01*
X411207Y-31748D01*
X408052Y-28593D01*
X403931Y-26886D01*
X399469Y-26886D01*
X395348Y-28593D01*
X392193Y-31748D01*
X390486Y-35869D01*
X390486Y-40331D01*
X392193Y-44452D01*
X395348Y-47607D01*
X399469Y-49314D01*
G37*
G36*
X277019Y-100869D02*
X281781Y-100869D01*
X286180Y-99047D01*
X289547Y-95680D01*
X291369Y-91281D01*
X291369Y-86519D01*
X289547Y-82120D01*
X286810Y-79383D01*
X286592Y-79061D01*
X286512Y-78664D01*
X286512Y-49918D01*
X286583Y-49544D01*
X286804Y-49205D01*
X287139Y-48979D01*
X290452Y-47607D01*
X293607Y-44452D01*
X295314Y-40331D01*
X295314Y-35869D01*
X293607Y-31748D01*
X290452Y-28593D01*
X286331Y-26886D01*
X281869Y-26886D01*
X277748Y-28593D01*
X274593Y-31748D01*
X272886Y-35869D01*
X272886Y-39740D01*
X272809Y-40128D01*
X272288Y-41385D01*
X272288Y-78664D01*
X272214Y-79046D01*
X271990Y-79383D01*
X269253Y-82120D01*
X267431Y-86519D01*
X267431Y-91281D01*
X269253Y-95680D01*
X272620Y-99047D01*
X277019Y-100869D01*
G37*
G36*
X294355Y-88138D02*
X304038Y-88138D01*
X304038Y-78455D01*
X302722Y-78455D01*
X298883Y-80045D01*
X295945Y-82983D01*
X294355Y-86822D01*
X294355Y-88138D01*
G37*
G36*
X305562Y-88138D02*
X315245Y-88138D01*
X315245Y-86822D01*
X313655Y-82983D01*
X310717Y-80045D01*
X306878Y-78455D01*
X305562Y-78455D01*
X305562Y-88138D01*
G37*
G36*
X305562Y-99345D02*
X306878Y-99345D01*
X310717Y-97755D01*
X313655Y-94817D01*
X315245Y-90978D01*
X315245Y-89662D01*
X305562Y-89662D01*
X305562Y-99345D01*
G37*
G36*
X302722Y-99345D02*
X304038Y-99345D01*
X304038Y-89662D01*
X294355Y-89662D01*
X294355Y-90978D01*
X295945Y-94817D01*
X298883Y-97755D01*
X302722Y-99345D01*
G37*
%LPD*%
G36*
X557312Y-42412D02*
X556915Y-42492D01*
X459371Y-42492D01*
X458989Y-42418D01*
X458652Y-42194D01*
X438650Y-22192D01*
X438433Y-21870D01*
X438353Y-21474D01*
X438353Y26955D01*
X438427Y27337D01*
X438650Y27674D01*
X441146Y30169D01*
X442925Y34464D01*
X442925Y54352D01*
X441233Y58435D01*
X441157Y58792D01*
X441224Y59190D01*
X441442Y59531D01*
X441776Y59760D01*
X442172Y59840D01*
X447632Y59840D01*
X447983Y59777D01*
X448327Y59565D01*
X448561Y59235D01*
X448648Y58840D01*
X448573Y58443D01*
X448350Y58106D01*
X448028Y57783D01*
X446481Y54049D01*
X446481Y45170D01*
X466801Y45170D01*
X466801Y54049D01*
X465254Y57783D01*
X464931Y58106D01*
X464727Y58398D01*
X464634Y58792D01*
X464702Y59190D01*
X464920Y59531D01*
X465253Y59760D01*
X465650Y59840D01*
X471109Y59840D01*
X471468Y59775D01*
X471811Y59559D01*
X472042Y59228D01*
X472125Y58832D01*
X472048Y58435D01*
X470357Y54352D01*
X470357Y34464D01*
X472136Y30169D01*
X475422Y26883D01*
X479717Y25104D01*
X484365Y25104D01*
X488659Y26883D01*
X491946Y30169D01*
X493802Y34650D01*
X493994Y34951D01*
X494322Y35187D01*
X494716Y35277D01*
X495115Y35206D01*
X495453Y34986D01*
X495679Y34650D01*
X497536Y30169D01*
X500822Y26883D01*
X505117Y25104D01*
X509765Y25104D01*
X514059Y26883D01*
X517346Y30169D01*
X519202Y34650D01*
X519394Y34951D01*
X519722Y35187D01*
X520116Y35277D01*
X520515Y35206D01*
X520853Y34986D01*
X521079Y34650D01*
X522936Y30169D01*
X526296Y26809D01*
X526436Y26717D01*
X526664Y26384D01*
X526745Y25987D01*
X526745Y-8556D01*
X527673Y-10797D01*
X557634Y-40758D01*
X557838Y-41050D01*
X557931Y-41444D01*
X557863Y-41842D01*
X557645Y-42183D01*
X557312Y-42412D01*
G37*
%LPC*%
G36*
X454620Y26628D02*
X455879Y26628D01*
X455879Y43646D01*
X446481Y43646D01*
X446481Y34767D01*
X448028Y31033D01*
X450886Y28175D01*
X454620Y26628D01*
G37*
G36*
X457403Y26628D02*
X458662Y26628D01*
X462396Y28175D01*
X465254Y31033D01*
X466801Y34767D01*
X466801Y43646D01*
X457403Y43646D01*
X457403Y26628D01*
G37*
%LPD*%
G36*
X1695911Y-80175D02*
X1695516Y-80262D01*
X1695119Y-80188D01*
X1694782Y-79965D01*
X1652717Y-37900D01*
X1652513Y-37608D01*
X1652420Y-37214D01*
X1652488Y-36816D01*
X1652706Y-36475D01*
X1653039Y-36246D01*
X1653436Y-36166D01*
X1656882Y-36166D01*
X1659123Y-35238D01*
X1693258Y-1103D01*
X1693550Y-899D01*
X1693944Y-806D01*
X1694342Y-874D01*
X1694683Y-1092D01*
X1694912Y-1425D01*
X1694992Y-1821D01*
X1694992Y-3336D01*
X1697042Y-8284D01*
X1700828Y-12071D01*
X1701671Y-12419D01*
X1701971Y-12612D01*
X1702208Y-12939D01*
X1702297Y-13334D01*
X1702227Y-13732D01*
X1702006Y-14071D01*
X1701671Y-14297D01*
X1700828Y-14646D01*
X1697042Y-18432D01*
X1694992Y-23380D01*
X1694992Y-28736D01*
X1697042Y-33684D01*
X1700828Y-37471D01*
X1701671Y-37819D01*
X1701971Y-38012D01*
X1702208Y-38339D01*
X1702297Y-38734D01*
X1702227Y-39132D01*
X1702006Y-39471D01*
X1701671Y-39697D01*
X1700828Y-40046D01*
X1697042Y-43832D01*
X1694992Y-48780D01*
X1694992Y-54136D01*
X1697042Y-59084D01*
X1700828Y-62871D01*
X1703662Y-64044D01*
X1703962Y-64236D01*
X1704199Y-64564D01*
X1704289Y-64959D01*
X1704218Y-65357D01*
X1703997Y-65695D01*
X1703662Y-65921D01*
X1701692Y-66737D01*
X1698334Y-70096D01*
X1696516Y-74483D01*
X1696516Y-76096D01*
X1709216Y-76096D01*
X1709216Y-77620D01*
X1696516Y-77620D01*
X1696516Y-79246D01*
X1696453Y-79597D01*
X1696241Y-79941D01*
X1695911Y-80175D01*
G37*
G36*
X238439Y-739760D02*
X238043Y-739840D01*
X50000Y-739840D01*
X49867Y-739831D01*
X39819Y-738508D01*
X39563Y-738440D01*
X30199Y-734561D01*
X29970Y-734429D01*
X21929Y-728259D01*
X21741Y-728071D01*
X15571Y-720031D01*
X15439Y-719801D01*
X11560Y-710437D01*
X11492Y-710181D01*
X10169Y-700133D01*
X10160Y-700000D01*
X10160Y-50000D01*
X10169Y-49867D01*
X11492Y-39819D01*
X11560Y-39563D01*
X15439Y-30199D01*
X15571Y-29970D01*
X21741Y-21929D01*
X21929Y-21741D01*
X29970Y-15571D01*
X30199Y-15439D01*
X39563Y-11560D01*
X39819Y-11492D01*
X49867Y-10169D01*
X50000Y-10160D01*
X169266Y-10160D01*
X169617Y-10223D01*
X169961Y-10435D01*
X170195Y-10765D01*
X170282Y-11160D01*
X170208Y-11557D01*
X169985Y-11894D01*
X134215Y-47664D01*
X133900Y-47878D01*
X133504Y-47962D01*
X133107Y-47885D01*
X130335Y-46736D01*
X123665Y-46736D01*
X117504Y-49288D01*
X112788Y-54004D01*
X111640Y-56777D01*
X111431Y-57095D01*
X111097Y-57324D01*
X110701Y-57404D01*
X100387Y-57404D01*
X98147Y-58332D01*
X83732Y-72747D01*
X82804Y-74987D01*
X82804Y-81641D01*
X82741Y-81992D01*
X82529Y-82336D01*
X82199Y-82570D01*
X81804Y-82657D01*
X81407Y-82582D01*
X81070Y-82359D01*
X77773Y-79063D01*
X73508Y-77296D01*
X68892Y-77296D01*
X64627Y-79063D01*
X61363Y-82327D01*
X59596Y-86592D01*
X59596Y-91208D01*
X61363Y-95473D01*
X64627Y-98737D01*
X68892Y-100504D01*
X73508Y-100504D01*
X77773Y-98737D01*
X81070Y-95441D01*
X81362Y-95237D01*
X81756Y-95144D01*
X82154Y-95212D01*
X82495Y-95430D01*
X82724Y-95763D01*
X82804Y-96159D01*
X82804Y-128213D01*
X83732Y-130453D01*
X120606Y-167327D01*
X120824Y-167650D01*
X120904Y-168046D01*
X120904Y-237701D01*
X120833Y-238075D01*
X120612Y-238414D01*
X120277Y-238640D01*
X117504Y-239788D01*
X112788Y-244504D01*
X111640Y-247277D01*
X111431Y-247595D01*
X111097Y-247824D01*
X110701Y-247904D01*
X100387Y-247904D01*
X98147Y-248832D01*
X83816Y-263163D01*
X83516Y-263371D01*
X83122Y-263461D01*
X82723Y-263390D01*
X82385Y-263169D01*
X82159Y-262834D01*
X81037Y-260127D01*
X77773Y-256863D01*
X73508Y-255096D01*
X68892Y-255096D01*
X64627Y-256863D01*
X61363Y-260127D01*
X59596Y-264392D01*
X59596Y-269008D01*
X61363Y-273273D01*
X64627Y-276537D01*
X68892Y-278304D01*
X73508Y-278304D01*
X77773Y-276537D01*
X81070Y-273241D01*
X81362Y-273037D01*
X81756Y-272944D01*
X82154Y-273012D01*
X82495Y-273230D01*
X82724Y-273563D01*
X82804Y-273959D01*
X82804Y-318713D01*
X83732Y-320953D01*
X120606Y-357827D01*
X120824Y-358150D01*
X120904Y-358546D01*
X120904Y-428201D01*
X120833Y-428575D01*
X120612Y-428914D01*
X120277Y-429140D01*
X117504Y-430288D01*
X112788Y-435004D01*
X111640Y-437777D01*
X111431Y-438095D01*
X111097Y-438324D01*
X110701Y-438404D01*
X100387Y-438404D01*
X98147Y-439332D01*
X81838Y-455641D01*
X81546Y-455845D01*
X81152Y-455938D01*
X80754Y-455870D01*
X80413Y-455652D01*
X80184Y-455318D01*
X80104Y-454922D01*
X80104Y-454892D01*
X78337Y-450627D01*
X75073Y-447363D01*
X70808Y-445596D01*
X66192Y-445596D01*
X61927Y-447363D01*
X58663Y-450627D01*
X56896Y-454892D01*
X56896Y-459508D01*
X58663Y-463773D01*
X61927Y-467037D01*
X66192Y-468804D01*
X66222Y-468804D01*
X66573Y-468867D01*
X66917Y-469079D01*
X67151Y-469409D01*
X67238Y-469804D01*
X67164Y-470201D01*
X66941Y-470538D01*
X32932Y-504547D01*
X32004Y-506787D01*
X32004Y-598113D01*
X32932Y-600353D01*
X72747Y-640168D01*
X74987Y-641096D01*
X104495Y-641096D01*
X104839Y-641156D01*
X105185Y-641366D01*
X105421Y-641693D01*
X105511Y-642088D01*
X105440Y-642486D01*
X105219Y-642825D01*
X104884Y-643051D01*
X101190Y-644581D01*
X95941Y-649830D01*
X93100Y-656688D01*
X93100Y-664112D01*
X95941Y-670970D01*
X101190Y-676219D01*
X108048Y-679060D01*
X115472Y-679060D01*
X122330Y-676219D01*
X127579Y-670970D01*
X130120Y-664835D01*
X130409Y-664443D01*
X130765Y-664251D01*
X131168Y-664214D01*
X131553Y-664336D01*
X131860Y-664599D01*
X132040Y-664961D01*
X133989Y-672234D01*
X138026Y-679226D01*
X143734Y-684934D01*
X150726Y-688971D01*
X158524Y-691060D01*
X166596Y-691060D01*
X174394Y-688971D01*
X181386Y-684934D01*
X187094Y-679226D01*
X191131Y-672234D01*
X193080Y-664961D01*
X193314Y-664535D01*
X193642Y-664298D01*
X194037Y-664208D01*
X194435Y-664279D01*
X194774Y-664500D01*
X195000Y-664835D01*
X197541Y-670970D01*
X202790Y-676219D01*
X209648Y-679060D01*
X217072Y-679060D01*
X223930Y-676219D01*
X229179Y-670970D01*
X232020Y-664112D01*
X232020Y-656688D01*
X229179Y-649830D01*
X223930Y-644581D01*
X217072Y-641740D01*
X209648Y-641740D01*
X202790Y-644581D01*
X197541Y-649830D01*
X195000Y-655965D01*
X194711Y-656357D01*
X194355Y-656549D01*
X193952Y-656586D01*
X193567Y-656464D01*
X193260Y-656201D01*
X193080Y-655839D01*
X191131Y-648566D01*
X187094Y-641574D01*
X181386Y-635866D01*
X174394Y-631829D01*
X166596Y-629740D01*
X158524Y-629740D01*
X150726Y-631829D01*
X143734Y-635866D01*
X142958Y-636642D01*
X142666Y-636846D01*
X142272Y-636939D01*
X141874Y-636871D01*
X141533Y-636653D01*
X141304Y-636320D01*
X141224Y-635923D01*
X141224Y-631665D01*
X138672Y-625504D01*
X133956Y-620788D01*
X127795Y-618236D01*
X121125Y-618236D01*
X114964Y-620788D01*
X110248Y-625504D01*
X109100Y-628277D01*
X108891Y-628595D01*
X108557Y-628824D01*
X108161Y-628904D01*
X79146Y-628904D01*
X78765Y-628830D01*
X78427Y-628606D01*
X44494Y-594673D01*
X44276Y-594350D01*
X44196Y-593954D01*
X44196Y-510946D01*
X44270Y-510565D01*
X44494Y-510227D01*
X103827Y-450894D01*
X104150Y-450676D01*
X104546Y-450596D01*
X107035Y-450596D01*
X107379Y-450656D01*
X107725Y-450866D01*
X107961Y-451193D01*
X108051Y-451588D01*
X107980Y-451986D01*
X107759Y-452325D01*
X107424Y-452551D01*
X103730Y-454081D01*
X98481Y-459330D01*
X95640Y-466188D01*
X95640Y-473612D01*
X98481Y-480470D01*
X103730Y-485719D01*
X110588Y-488560D01*
X118012Y-488560D01*
X124870Y-485719D01*
X130119Y-480470D01*
X132660Y-474335D01*
X132949Y-473943D01*
X133305Y-473751D01*
X133708Y-473714D01*
X134093Y-473836D01*
X134400Y-474099D01*
X134580Y-474461D01*
X136529Y-481734D01*
X140566Y-488726D01*
X146274Y-494434D01*
X153266Y-498471D01*
X161064Y-500560D01*
X169136Y-500560D01*
X176934Y-498471D01*
X183926Y-494434D01*
X189634Y-488726D01*
X193671Y-481734D01*
X195620Y-474461D01*
X195854Y-474035D01*
X196182Y-473798D01*
X196577Y-473708D01*
X196975Y-473779D01*
X197314Y-474000D01*
X197540Y-474335D01*
X200081Y-480470D01*
X205330Y-485719D01*
X212188Y-488560D01*
X219612Y-488560D01*
X226470Y-485719D01*
X231719Y-480470D01*
X234560Y-473612D01*
X234560Y-466188D01*
X231719Y-459330D01*
X226470Y-454081D01*
X219612Y-451240D01*
X212188Y-451240D01*
X205330Y-454081D01*
X200081Y-459330D01*
X197540Y-465465D01*
X197251Y-465857D01*
X196895Y-466049D01*
X196492Y-466086D01*
X196107Y-465964D01*
X195800Y-465701D01*
X195620Y-465339D01*
X193671Y-458066D01*
X189634Y-451074D01*
X183926Y-445366D01*
X176934Y-441329D01*
X169136Y-439240D01*
X161064Y-439240D01*
X153266Y-441329D01*
X146274Y-445366D01*
X145498Y-446142D01*
X145206Y-446346D01*
X144812Y-446439D01*
X144414Y-446371D01*
X144073Y-446153D01*
X143844Y-445820D01*
X143764Y-445423D01*
X143764Y-441165D01*
X141212Y-435004D01*
X136496Y-430288D01*
X133723Y-429140D01*
X133405Y-428931D01*
X133176Y-428597D01*
X133096Y-428201D01*
X133096Y-354387D01*
X132168Y-352147D01*
X95294Y-315273D01*
X95076Y-314950D01*
X94996Y-314554D01*
X94996Y-286665D01*
X95056Y-286321D01*
X95266Y-285976D01*
X95593Y-285739D01*
X95988Y-285649D01*
X96386Y-285720D01*
X96725Y-285941D01*
X96951Y-286276D01*
X98481Y-289970D01*
X103730Y-295219D01*
X110588Y-298060D01*
X118012Y-298060D01*
X124870Y-295219D01*
X130119Y-289970D01*
X132660Y-283835D01*
X132949Y-283443D01*
X133305Y-283251D01*
X133708Y-283214D01*
X134093Y-283336D01*
X134400Y-283599D01*
X134580Y-283961D01*
X136529Y-291234D01*
X140566Y-298226D01*
X146274Y-303934D01*
X153266Y-307971D01*
X161064Y-310060D01*
X169136Y-310060D01*
X176934Y-307971D01*
X183926Y-303934D01*
X189634Y-298226D01*
X193671Y-291234D01*
X195620Y-283961D01*
X195854Y-283535D01*
X196182Y-283298D01*
X196577Y-283208D01*
X196975Y-283279D01*
X197314Y-283500D01*
X197540Y-283835D01*
X200081Y-289970D01*
X205330Y-295219D01*
X212188Y-298060D01*
X219612Y-298060D01*
X226470Y-295219D01*
X231719Y-289970D01*
X234560Y-283112D01*
X234560Y-275688D01*
X231719Y-268830D01*
X226470Y-263581D01*
X219612Y-260740D01*
X212188Y-260740D01*
X205330Y-263581D01*
X200081Y-268830D01*
X197540Y-274965D01*
X197251Y-275357D01*
X196895Y-275549D01*
X196492Y-275586D01*
X196107Y-275464D01*
X195800Y-275201D01*
X195620Y-274839D01*
X193671Y-267566D01*
X189634Y-260574D01*
X183926Y-254866D01*
X176934Y-250829D01*
X169136Y-248740D01*
X161064Y-248740D01*
X153266Y-250829D01*
X146274Y-254866D01*
X145498Y-255642D01*
X145206Y-255846D01*
X144812Y-255939D01*
X144414Y-255871D01*
X144073Y-255653D01*
X143844Y-255320D01*
X143764Y-254923D01*
X143764Y-250665D01*
X141212Y-244504D01*
X136496Y-239788D01*
X133723Y-238640D01*
X133405Y-238431D01*
X133176Y-238097D01*
X133096Y-237701D01*
X133096Y-163887D01*
X132168Y-161647D01*
X95294Y-124773D01*
X95076Y-124450D01*
X94996Y-124054D01*
X94996Y-96165D01*
X95056Y-95821D01*
X95266Y-95476D01*
X95593Y-95239D01*
X95988Y-95149D01*
X96386Y-95220D01*
X96725Y-95441D01*
X96951Y-95776D01*
X98481Y-99470D01*
X103730Y-104719D01*
X110588Y-107560D01*
X118012Y-107560D01*
X124870Y-104719D01*
X130119Y-99470D01*
X132660Y-93335D01*
X132949Y-92943D01*
X133305Y-92751D01*
X133708Y-92714D01*
X134093Y-92836D01*
X134400Y-93099D01*
X134580Y-93461D01*
X136529Y-100734D01*
X140566Y-107726D01*
X146274Y-113434D01*
X153266Y-117471D01*
X161064Y-119560D01*
X169136Y-119560D01*
X176934Y-117471D01*
X183926Y-113434D01*
X189634Y-107726D01*
X193671Y-100734D01*
X195620Y-93461D01*
X195854Y-93035D01*
X196182Y-92798D01*
X196577Y-92708D01*
X196975Y-92779D01*
X197314Y-93000D01*
X197540Y-93335D01*
X200081Y-99470D01*
X205330Y-104719D01*
X212188Y-107560D01*
X219612Y-107560D01*
X226470Y-104719D01*
X231719Y-99470D01*
X234560Y-92612D01*
X234560Y-85188D01*
X231719Y-78330D01*
X226470Y-73081D01*
X219612Y-70240D01*
X212188Y-70240D01*
X205330Y-73081D01*
X200081Y-78330D01*
X197540Y-84465D01*
X197251Y-84857D01*
X196895Y-85049D01*
X196492Y-85086D01*
X196107Y-84964D01*
X195800Y-84701D01*
X195620Y-84339D01*
X193671Y-77066D01*
X189634Y-70074D01*
X183926Y-64366D01*
X176934Y-60329D01*
X169136Y-58240D01*
X161064Y-58240D01*
X153266Y-60329D01*
X146274Y-64366D01*
X145498Y-65142D01*
X145206Y-65346D01*
X144812Y-65439D01*
X144414Y-65371D01*
X144073Y-65153D01*
X143844Y-64820D01*
X143764Y-64423D01*
X143764Y-60165D01*
X142615Y-57393D01*
X142538Y-57020D01*
X142612Y-56622D01*
X142836Y-56285D01*
X180027Y-19094D01*
X180350Y-18876D01*
X180746Y-18796D01*
X212954Y-18796D01*
X213335Y-18870D01*
X213673Y-19094D01*
X247606Y-53027D01*
X247824Y-53350D01*
X247904Y-53746D01*
X247904Y-102813D01*
X248832Y-105053D01*
X275947Y-132168D01*
X278187Y-133096D01*
X369513Y-133096D01*
X371753Y-132168D01*
X441319Y-62602D01*
X441642Y-62384D01*
X442038Y-62304D01*
X476254Y-62304D01*
X476470Y-62327D01*
X476840Y-62490D01*
X477117Y-62784D01*
X477258Y-63163D01*
X477239Y-63567D01*
X477065Y-63932D01*
X476762Y-64200D01*
X476474Y-64366D01*
X470766Y-70074D01*
X466729Y-77066D01*
X464780Y-84339D01*
X464546Y-84766D01*
X464218Y-85002D01*
X463823Y-85092D01*
X463425Y-85021D01*
X463086Y-84800D01*
X462860Y-84465D01*
X460319Y-78330D01*
X455070Y-73081D01*
X448212Y-70240D01*
X440788Y-70240D01*
X433930Y-73081D01*
X428681Y-78330D01*
X425840Y-85188D01*
X425840Y-92612D01*
X428681Y-99470D01*
X433930Y-104719D01*
X440788Y-107560D01*
X448212Y-107560D01*
X455070Y-104719D01*
X460319Y-99470D01*
X462860Y-93335D01*
X463149Y-92943D01*
X463505Y-92751D01*
X463908Y-92714D01*
X464293Y-92836D01*
X464600Y-93099D01*
X464780Y-93461D01*
X466729Y-100734D01*
X470766Y-107726D01*
X476474Y-113434D01*
X483466Y-117471D01*
X491264Y-119560D01*
X499336Y-119560D01*
X507134Y-117471D01*
X514126Y-113434D01*
X514902Y-112658D01*
X515194Y-112454D01*
X515588Y-112361D01*
X515986Y-112429D01*
X516327Y-112647D01*
X516556Y-112980D01*
X516636Y-113377D01*
X516636Y-117635D01*
X519188Y-123796D01*
X523904Y-128512D01*
X530065Y-131064D01*
X536735Y-131064D01*
X539507Y-129915D01*
X539880Y-129838D01*
X540278Y-129912D01*
X540615Y-130136D01*
X565106Y-154627D01*
X565324Y-154950D01*
X565404Y-155346D01*
X565404Y-272135D01*
X565344Y-272479D01*
X565134Y-272825D01*
X564807Y-273061D01*
X564412Y-273151D01*
X564014Y-273080D01*
X563675Y-272859D01*
X563449Y-272524D01*
X561919Y-268830D01*
X556670Y-263581D01*
X549812Y-260740D01*
X542388Y-260740D01*
X535530Y-263581D01*
X530281Y-268830D01*
X527740Y-274965D01*
X527451Y-275357D01*
X527095Y-275549D01*
X526692Y-275586D01*
X526307Y-275464D01*
X526000Y-275201D01*
X525820Y-274839D01*
X523871Y-267566D01*
X519834Y-260574D01*
X514126Y-254866D01*
X507134Y-250829D01*
X499336Y-248740D01*
X491264Y-248740D01*
X483466Y-250829D01*
X476474Y-254866D01*
X470766Y-260574D01*
X466729Y-267566D01*
X464780Y-274839D01*
X464546Y-275266D01*
X464218Y-275502D01*
X463823Y-275592D01*
X463425Y-275521D01*
X463086Y-275300D01*
X462860Y-274965D01*
X460319Y-268830D01*
X455070Y-263581D01*
X448212Y-260740D01*
X440788Y-260740D01*
X433930Y-263581D01*
X428681Y-268830D01*
X425840Y-275688D01*
X425840Y-283112D01*
X428681Y-289970D01*
X433930Y-295219D01*
X440788Y-298060D01*
X448212Y-298060D01*
X455070Y-295219D01*
X460319Y-289970D01*
X462860Y-283835D01*
X463149Y-283443D01*
X463505Y-283251D01*
X463908Y-283214D01*
X464293Y-283336D01*
X464600Y-283599D01*
X464780Y-283961D01*
X466729Y-291234D01*
X470766Y-298226D01*
X476474Y-303934D01*
X483466Y-307971D01*
X491264Y-310060D01*
X499336Y-310060D01*
X507134Y-307971D01*
X514126Y-303934D01*
X514902Y-303158D01*
X515194Y-302954D01*
X515588Y-302861D01*
X515986Y-302929D01*
X516327Y-303147D01*
X516556Y-303480D01*
X516636Y-303877D01*
X516636Y-308135D01*
X519188Y-314296D01*
X523904Y-319012D01*
X530065Y-321564D01*
X536735Y-321564D01*
X542896Y-319012D01*
X547612Y-314296D01*
X548760Y-311523D01*
X548969Y-311205D01*
X549303Y-310976D01*
X549699Y-310896D01*
X555854Y-310896D01*
X556235Y-310970D01*
X556573Y-311194D01*
X565106Y-319727D01*
X565324Y-320050D01*
X565404Y-320446D01*
X565404Y-462635D01*
X565344Y-462979D01*
X565134Y-463325D01*
X564807Y-463561D01*
X564412Y-463651D01*
X564014Y-463580D01*
X563675Y-463359D01*
X563449Y-463024D01*
X561919Y-459330D01*
X556670Y-454081D01*
X549812Y-451240D01*
X542388Y-451240D01*
X535530Y-454081D01*
X530281Y-459330D01*
X527740Y-465465D01*
X527451Y-465857D01*
X527095Y-466049D01*
X526692Y-466086D01*
X526307Y-465964D01*
X526000Y-465701D01*
X525820Y-465339D01*
X523871Y-458066D01*
X519834Y-451074D01*
X514126Y-445366D01*
X507134Y-441329D01*
X499336Y-439240D01*
X491264Y-439240D01*
X483466Y-441329D01*
X476474Y-445366D01*
X470766Y-451074D01*
X466729Y-458066D01*
X464780Y-465339D01*
X464546Y-465766D01*
X464218Y-466002D01*
X463823Y-466092D01*
X463425Y-466021D01*
X463086Y-465800D01*
X462860Y-465465D01*
X460319Y-459330D01*
X455070Y-454081D01*
X448212Y-451240D01*
X440788Y-451240D01*
X433930Y-454081D01*
X428681Y-459330D01*
X425840Y-466188D01*
X425840Y-473612D01*
X428681Y-480470D01*
X433930Y-485719D01*
X440788Y-488560D01*
X448212Y-488560D01*
X455070Y-485719D01*
X460319Y-480470D01*
X462860Y-474335D01*
X463149Y-473943D01*
X463505Y-473751D01*
X463908Y-473714D01*
X464293Y-473836D01*
X464600Y-474099D01*
X464780Y-474461D01*
X466729Y-481734D01*
X470766Y-488726D01*
X476474Y-494434D01*
X483466Y-498471D01*
X491264Y-500560D01*
X499336Y-500560D01*
X507134Y-498471D01*
X514126Y-494434D01*
X514902Y-493658D01*
X515194Y-493454D01*
X515588Y-493361D01*
X515986Y-493429D01*
X516327Y-493647D01*
X516556Y-493980D01*
X516636Y-494377D01*
X516636Y-498635D01*
X519188Y-504796D01*
X523904Y-509512D01*
X530065Y-512064D01*
X536735Y-512064D01*
X542896Y-509512D01*
X547612Y-504796D01*
X548760Y-502023D01*
X548969Y-501705D01*
X549303Y-501476D01*
X549699Y-501396D01*
X555854Y-501396D01*
X556235Y-501470D01*
X556573Y-501694D01*
X565106Y-510227D01*
X565324Y-510550D01*
X565404Y-510946D01*
X565404Y-653135D01*
X565344Y-653479D01*
X565134Y-653825D01*
X564807Y-654061D01*
X564412Y-654151D01*
X564014Y-654080D01*
X563675Y-653859D01*
X563449Y-653524D01*
X561919Y-649830D01*
X556670Y-644581D01*
X549812Y-641740D01*
X542388Y-641740D01*
X535530Y-644581D01*
X530281Y-649830D01*
X527740Y-655965D01*
X527451Y-656357D01*
X527095Y-656549D01*
X526692Y-656586D01*
X526307Y-656464D01*
X526000Y-656201D01*
X525820Y-655839D01*
X523871Y-648566D01*
X519834Y-641574D01*
X514126Y-635866D01*
X507134Y-631829D01*
X499336Y-629740D01*
X491264Y-629740D01*
X483466Y-631829D01*
X476474Y-635866D01*
X470766Y-641574D01*
X466729Y-648566D01*
X464780Y-655839D01*
X464546Y-656266D01*
X464218Y-656502D01*
X463823Y-656592D01*
X463425Y-656521D01*
X463086Y-656300D01*
X462860Y-655965D01*
X460319Y-649830D01*
X455070Y-644581D01*
X448212Y-641740D01*
X440788Y-641740D01*
X433930Y-644581D01*
X428681Y-649830D01*
X425840Y-656688D01*
X425840Y-664112D01*
X428681Y-670970D01*
X433930Y-676219D01*
X440788Y-679060D01*
X448212Y-679060D01*
X455070Y-676219D01*
X460319Y-670970D01*
X462860Y-664835D01*
X463149Y-664443D01*
X463505Y-664251D01*
X463908Y-664214D01*
X464293Y-664336D01*
X464600Y-664599D01*
X464780Y-664961D01*
X466729Y-672234D01*
X470766Y-679226D01*
X476474Y-684934D01*
X483466Y-688971D01*
X491264Y-691060D01*
X499336Y-691060D01*
X507134Y-688971D01*
X514126Y-684934D01*
X514902Y-684158D01*
X515194Y-683954D01*
X515588Y-683861D01*
X515986Y-683929D01*
X516327Y-684147D01*
X516556Y-684480D01*
X516636Y-684877D01*
X516636Y-689135D01*
X519188Y-695296D01*
X523904Y-700012D01*
X530065Y-702564D01*
X536735Y-702564D01*
X542896Y-700012D01*
X547612Y-695296D01*
X548760Y-692523D01*
X548969Y-692205D01*
X549303Y-691976D01*
X549699Y-691896D01*
X551688Y-691896D01*
X552054Y-691964D01*
X552395Y-692182D01*
X552624Y-692516D01*
X552704Y-692912D01*
X552704Y-700921D01*
X553632Y-703161D01*
X588577Y-738106D01*
X588781Y-738398D01*
X588874Y-738792D01*
X588806Y-739190D01*
X588588Y-739531D01*
X588254Y-739760D01*
X587858Y-739840D01*
X361557Y-739840D01*
X361199Y-739775D01*
X360856Y-739559D01*
X360625Y-739228D01*
X360542Y-738832D01*
X360619Y-738435D01*
X362204Y-734608D01*
X362204Y-729992D01*
X360437Y-725727D01*
X357173Y-722463D01*
X352908Y-720696D01*
X348292Y-720696D01*
X344027Y-722463D01*
X340763Y-725727D01*
X338996Y-729992D01*
X338996Y-734608D01*
X340581Y-738435D01*
X340658Y-738792D01*
X340590Y-739190D01*
X340372Y-739531D01*
X340039Y-739760D01*
X339643Y-739840D01*
X259957Y-739840D01*
X259599Y-739775D01*
X259256Y-739559D01*
X259025Y-739228D01*
X258942Y-738832D01*
X259019Y-738435D01*
X260604Y-734608D01*
X260604Y-729992D01*
X258837Y-725727D01*
X255573Y-722463D01*
X251308Y-720696D01*
X246692Y-720696D01*
X242427Y-722463D01*
X239163Y-725727D01*
X237396Y-729992D01*
X237396Y-734608D01*
X238981Y-738435D01*
X239058Y-738792D01*
X238990Y-739190D01*
X238772Y-739531D01*
X238439Y-739760D01*
G37*
%LPC*%
G36*
X46029Y-80160D02*
X53971Y-80160D01*
X61641Y-78105D01*
X68519Y-74134D01*
X74134Y-68519D01*
X78105Y-61641D01*
X80160Y-53971D01*
X80160Y-46029D01*
X78105Y-38359D01*
X74134Y-31481D01*
X68519Y-25866D01*
X61641Y-21895D01*
X53971Y-19840D01*
X46029Y-19840D01*
X38359Y-21895D01*
X31481Y-25866D01*
X25866Y-31481D01*
X21895Y-38359D01*
X19840Y-46029D01*
X19840Y-53971D01*
X21895Y-61641D01*
X25866Y-68519D01*
X31481Y-74134D01*
X38359Y-78105D01*
X46029Y-80160D01*
G37*
G36*
X187165Y-54864D02*
X193835Y-54864D01*
X199996Y-52312D01*
X204712Y-47596D01*
X207264Y-41435D01*
X207264Y-34765D01*
X204712Y-28604D01*
X199996Y-23888D01*
X193835Y-21336D01*
X187165Y-21336D01*
X181004Y-23888D01*
X176288Y-28604D01*
X173736Y-34765D01*
X173736Y-41435D01*
X176288Y-47596D01*
X181004Y-52312D01*
X187165Y-54864D01*
G37*
G36*
X466565Y-156464D02*
X473235Y-156464D01*
X479396Y-153912D01*
X484112Y-149196D01*
X486664Y-143035D01*
X486664Y-136365D01*
X484112Y-130204D01*
X479396Y-125488D01*
X473235Y-122936D01*
X466565Y-122936D01*
X460404Y-125488D01*
X455688Y-130204D01*
X453136Y-136365D01*
X453136Y-143035D01*
X455688Y-149196D01*
X460404Y-153912D01*
X466565Y-156464D01*
G37*
G36*
X68892Y-202104D02*
X73508Y-202104D01*
X77773Y-200337D01*
X81037Y-197073D01*
X82804Y-192808D01*
X82804Y-188192D01*
X81037Y-183927D01*
X77773Y-180663D01*
X73508Y-178896D01*
X68892Y-178896D01*
X64627Y-180663D01*
X61363Y-183927D01*
X59596Y-188192D01*
X59596Y-192808D01*
X61363Y-197073D01*
X64627Y-200337D01*
X68892Y-202104D01*
G37*
G36*
X187165Y-245364D02*
X193835Y-245364D01*
X199996Y-242812D01*
X204712Y-238096D01*
X207264Y-231935D01*
X207264Y-225265D01*
X204712Y-219104D01*
X199996Y-214388D01*
X193835Y-211836D01*
X187165Y-211836D01*
X181004Y-214388D01*
X176288Y-219104D01*
X173736Y-225265D01*
X173736Y-231935D01*
X176288Y-238096D01*
X181004Y-242812D01*
X187165Y-245364D01*
G37*
G36*
X399469Y-239814D02*
X403931Y-239814D01*
X408052Y-238107D01*
X411207Y-234952D01*
X412914Y-230831D01*
X412914Y-226369D01*
X411207Y-222248D01*
X408052Y-219093D01*
X403931Y-217386D01*
X399469Y-217386D01*
X395348Y-219093D01*
X392193Y-222248D01*
X390486Y-226369D01*
X390486Y-230831D01*
X392193Y-234952D01*
X395348Y-238107D01*
X399469Y-239814D01*
G37*
G36*
X277019Y-291369D02*
X281781Y-291369D01*
X286180Y-289547D01*
X289547Y-286180D01*
X291369Y-281781D01*
X291369Y-277019D01*
X289547Y-272620D01*
X286810Y-269883D01*
X286592Y-269561D01*
X286512Y-269164D01*
X286512Y-240418D01*
X286583Y-240044D01*
X286804Y-239705D01*
X287139Y-239479D01*
X290452Y-238107D01*
X293607Y-234952D01*
X295314Y-230831D01*
X295314Y-226369D01*
X293607Y-222248D01*
X290452Y-219093D01*
X286331Y-217386D01*
X281869Y-217386D01*
X277748Y-219093D01*
X274593Y-222248D01*
X272886Y-226369D01*
X272886Y-230240D01*
X272809Y-230628D01*
X272288Y-231885D01*
X272288Y-269164D01*
X272214Y-269546D01*
X271990Y-269883D01*
X269253Y-272620D01*
X267431Y-277019D01*
X267431Y-281781D01*
X269253Y-286180D01*
X272620Y-289547D01*
X277019Y-291369D01*
G37*
G36*
X305562Y-278638D02*
X315245Y-278638D01*
X315245Y-277322D01*
X313655Y-273483D01*
X310717Y-270545D01*
X306878Y-268955D01*
X305562Y-268955D01*
X305562Y-278638D01*
G37*
G36*
X294355Y-278638D02*
X304038Y-278638D01*
X304038Y-268955D01*
X302722Y-268955D01*
X298883Y-270545D01*
X295945Y-273483D01*
X294355Y-277322D01*
X294355Y-278638D01*
G37*
G36*
X302722Y-289845D02*
X304038Y-289845D01*
X304038Y-280162D01*
X294355Y-280162D01*
X294355Y-281478D01*
X295945Y-285317D01*
X298883Y-288255D01*
X302722Y-289845D01*
G37*
G36*
X305562Y-289845D02*
X306878Y-289845D01*
X310717Y-288255D01*
X313655Y-285317D01*
X315245Y-281478D01*
X315245Y-280162D01*
X305562Y-280162D01*
X305562Y-289845D01*
G37*
G36*
X466565Y-346964D02*
X473235Y-346964D01*
X479396Y-344412D01*
X484112Y-339696D01*
X486664Y-333535D01*
X486664Y-326865D01*
X484112Y-320704D01*
X479396Y-315988D01*
X473235Y-313436D01*
X466565Y-313436D01*
X460404Y-315988D01*
X455688Y-320704D01*
X453136Y-326865D01*
X453136Y-333535D01*
X455688Y-339696D01*
X460404Y-344412D01*
X466565Y-346964D01*
G37*
G36*
X68892Y-379904D02*
X73508Y-379904D01*
X77773Y-378137D01*
X81037Y-374873D01*
X82804Y-370608D01*
X82804Y-365992D01*
X81037Y-361727D01*
X77773Y-358463D01*
X73508Y-356696D01*
X68892Y-356696D01*
X64627Y-358463D01*
X61363Y-361727D01*
X59596Y-365992D01*
X59596Y-370608D01*
X61363Y-374873D01*
X64627Y-378137D01*
X68892Y-379904D01*
G37*
G36*
X187165Y-435864D02*
X193835Y-435864D01*
X199996Y-433312D01*
X204712Y-428596D01*
X207264Y-422435D01*
X207264Y-415765D01*
X204712Y-409604D01*
X199996Y-404888D01*
X193835Y-402336D01*
X187165Y-402336D01*
X181004Y-404888D01*
X176288Y-409604D01*
X173736Y-415765D01*
X173736Y-422435D01*
X176288Y-428596D01*
X181004Y-433312D01*
X187165Y-435864D01*
G37*
G36*
X277019Y-481869D02*
X281781Y-481869D01*
X286180Y-480047D01*
X289547Y-476680D01*
X291369Y-472281D01*
X291369Y-467519D01*
X289547Y-463120D01*
X286810Y-460383D01*
X286592Y-460061D01*
X286512Y-459664D01*
X286512Y-430918D01*
X286583Y-430544D01*
X286804Y-430205D01*
X287139Y-429979D01*
X290452Y-428607D01*
X293607Y-425452D01*
X295314Y-421331D01*
X295314Y-416869D01*
X293607Y-412748D01*
X290452Y-409593D01*
X286331Y-407886D01*
X281869Y-407886D01*
X277748Y-409593D01*
X274593Y-412748D01*
X272886Y-416869D01*
X272886Y-420740D01*
X272809Y-421128D01*
X272288Y-422385D01*
X272288Y-459664D01*
X272214Y-460046D01*
X271990Y-460383D01*
X269253Y-463120D01*
X267431Y-467519D01*
X267431Y-472281D01*
X269253Y-476680D01*
X272620Y-480047D01*
X277019Y-481869D01*
G37*
G36*
X399469Y-430314D02*
X403931Y-430314D01*
X408052Y-428607D01*
X411207Y-425452D01*
X412914Y-421331D01*
X412914Y-416869D01*
X411207Y-412748D01*
X408052Y-409593D01*
X403931Y-407886D01*
X399469Y-407886D01*
X395348Y-409593D01*
X392193Y-412748D01*
X390486Y-416869D01*
X390486Y-421331D01*
X392193Y-425452D01*
X395348Y-428607D01*
X399469Y-430314D01*
G37*
G36*
X294355Y-469138D02*
X304038Y-469138D01*
X304038Y-459455D01*
X302722Y-459455D01*
X298883Y-461045D01*
X295945Y-463983D01*
X294355Y-467822D01*
X294355Y-469138D01*
G37*
G36*
X305562Y-469138D02*
X315245Y-469138D01*
X315245Y-467822D01*
X313655Y-463983D01*
X310717Y-461045D01*
X306878Y-459455D01*
X305562Y-459455D01*
X305562Y-469138D01*
G37*
G36*
X305562Y-480345D02*
X306878Y-480345D01*
X310717Y-478755D01*
X313655Y-475817D01*
X315245Y-471978D01*
X315245Y-470662D01*
X305562Y-470662D01*
X305562Y-480345D01*
G37*
G36*
X302722Y-480345D02*
X304038Y-480345D01*
X304038Y-470662D01*
X294355Y-470662D01*
X294355Y-471978D01*
X295945Y-475817D01*
X298883Y-478755D01*
X302722Y-480345D01*
G37*
G36*
X466565Y-537464D02*
X473235Y-537464D01*
X479396Y-534912D01*
X484112Y-530196D01*
X486664Y-524035D01*
X486664Y-517365D01*
X484112Y-511204D01*
X479396Y-506488D01*
X473235Y-503936D01*
X466565Y-503936D01*
X460404Y-506488D01*
X455688Y-511204D01*
X453136Y-517365D01*
X453136Y-524035D01*
X455688Y-530196D01*
X460404Y-534912D01*
X466565Y-537464D01*
G37*
G36*
X66192Y-570404D02*
X70808Y-570404D01*
X75073Y-568637D01*
X78337Y-565373D01*
X80104Y-561108D01*
X80104Y-556492D01*
X78337Y-552227D01*
X75073Y-548963D01*
X70808Y-547196D01*
X66192Y-547196D01*
X61927Y-548963D01*
X58663Y-552227D01*
X56896Y-556492D01*
X56896Y-561108D01*
X58663Y-565373D01*
X61927Y-568637D01*
X66192Y-570404D01*
G37*
G36*
X184625Y-626364D02*
X191295Y-626364D01*
X197456Y-623812D01*
X202172Y-619096D01*
X204724Y-612935D01*
X204724Y-606265D01*
X202172Y-600104D01*
X197456Y-595388D01*
X191295Y-592836D01*
X184625Y-592836D01*
X178464Y-595388D01*
X173748Y-600104D01*
X171196Y-606265D01*
X171196Y-612935D01*
X173748Y-619096D01*
X178464Y-623812D01*
X184625Y-626364D01*
G37*
G36*
X399469Y-620814D02*
X403931Y-620814D01*
X408052Y-619107D01*
X411207Y-615952D01*
X412914Y-611831D01*
X412914Y-607369D01*
X411207Y-603248D01*
X408052Y-600093D01*
X403931Y-598386D01*
X399469Y-598386D01*
X395348Y-600093D01*
X392193Y-603248D01*
X390486Y-607369D01*
X390486Y-611831D01*
X392193Y-615952D01*
X395348Y-619107D01*
X399469Y-620814D01*
G37*
G36*
X277019Y-672369D02*
X281781Y-672369D01*
X286180Y-670547D01*
X289547Y-667180D01*
X291369Y-662781D01*
X291369Y-658019D01*
X289547Y-653620D01*
X286810Y-650883D01*
X286592Y-650561D01*
X286512Y-650164D01*
X286512Y-621418D01*
X286583Y-621044D01*
X286804Y-620705D01*
X287139Y-620479D01*
X290452Y-619107D01*
X293607Y-615952D01*
X295314Y-611831D01*
X295314Y-607369D01*
X293607Y-603248D01*
X290452Y-600093D01*
X286331Y-598386D01*
X281869Y-598386D01*
X277748Y-600093D01*
X274593Y-603248D01*
X272886Y-607369D01*
X272886Y-611240D01*
X272809Y-611628D01*
X272288Y-612885D01*
X272288Y-650164D01*
X272214Y-650546D01*
X271990Y-650883D01*
X269253Y-653620D01*
X267431Y-658019D01*
X267431Y-662781D01*
X269253Y-667180D01*
X272620Y-670547D01*
X277019Y-672369D01*
G37*
G36*
X305562Y-659638D02*
X315245Y-659638D01*
X315245Y-658322D01*
X313655Y-654483D01*
X310717Y-651545D01*
X306878Y-649955D01*
X305562Y-649955D01*
X305562Y-659638D01*
G37*
G36*
X294355Y-659638D02*
X304038Y-659638D01*
X304038Y-649955D01*
X302722Y-649955D01*
X298883Y-651545D01*
X295945Y-654483D01*
X294355Y-658322D01*
X294355Y-659638D01*
G37*
G36*
X302722Y-670845D02*
X304038Y-670845D01*
X304038Y-661162D01*
X294355Y-661162D01*
X294355Y-662478D01*
X295945Y-666317D01*
X298883Y-669255D01*
X302722Y-670845D01*
G37*
G36*
X305562Y-670845D02*
X306878Y-670845D01*
X310717Y-669255D01*
X313655Y-666317D01*
X315245Y-662478D01*
X315245Y-661162D01*
X305562Y-661162D01*
X305562Y-670845D01*
G37*
G36*
X46029Y-730160D02*
X53971Y-730160D01*
X61641Y-728105D01*
X68519Y-724134D01*
X74134Y-718519D01*
X78105Y-711641D01*
X80160Y-703971D01*
X80160Y-696029D01*
X78105Y-688359D01*
X74134Y-681481D01*
X68519Y-675866D01*
X61641Y-671895D01*
X53971Y-669840D01*
X46029Y-669840D01*
X38359Y-671895D01*
X31481Y-675866D01*
X25866Y-681481D01*
X21895Y-688359D01*
X19840Y-696029D01*
X19840Y-703971D01*
X21895Y-711641D01*
X25866Y-718519D01*
X31481Y-724134D01*
X38359Y-728105D01*
X46029Y-730160D01*
G37*
G36*
X466565Y-727964D02*
X473235Y-727964D01*
X479396Y-725412D01*
X484112Y-720696D01*
X486664Y-714535D01*
X486664Y-707865D01*
X484112Y-701704D01*
X479396Y-696988D01*
X473235Y-694436D01*
X466565Y-694436D01*
X460404Y-696988D01*
X455688Y-701704D01*
X453136Y-707865D01*
X453136Y-714535D01*
X455688Y-720696D01*
X460404Y-725412D01*
X466565Y-727964D01*
G37*
%LPD*%
G36*
X1203088Y-393200D02*
X1202694Y-393293D01*
X1202296Y-393225D01*
X1201955Y-393007D01*
X1201726Y-392674D01*
X1201646Y-392277D01*
X1201646Y-392139D01*
X1200452Y-389256D01*
X1198244Y-387049D01*
X1195361Y-385854D01*
X1192239Y-385854D01*
X1189356Y-387049D01*
X1189098Y-387306D01*
X1188776Y-387524D01*
X1188379Y-387604D01*
X1120546Y-387604D01*
X1120165Y-387530D01*
X1119827Y-387306D01*
X1095653Y-363132D01*
X1093413Y-362204D01*
X1069746Y-362204D01*
X1069365Y-362130D01*
X1069027Y-361906D01*
X1035094Y-327973D01*
X1034876Y-327650D01*
X1034796Y-327254D01*
X1034796Y-125787D01*
X1033868Y-123547D01*
X971209Y-60888D01*
X971005Y-60596D01*
X970912Y-60202D01*
X970980Y-59804D01*
X971198Y-59463D01*
X971532Y-59234D01*
X971928Y-59154D01*
X1003473Y-59154D01*
X1006087Y-58071D01*
X1031230Y-32928D01*
X1031559Y-32708D01*
X1033144Y-32052D01*
X1035352Y-29844D01*
X1036546Y-26961D01*
X1036546Y-23839D01*
X1035352Y-20956D01*
X1034926Y-20530D01*
X1034722Y-20238D01*
X1034629Y-19844D01*
X1034697Y-19446D01*
X1034915Y-19105D01*
X1035248Y-18876D01*
X1035645Y-18796D01*
X1072527Y-18796D01*
X1072908Y-18870D01*
X1073245Y-19094D01*
X1092057Y-37906D01*
X1094298Y-38834D01*
X1096592Y-38834D01*
X1096973Y-38908D01*
X1097311Y-39132D01*
X1122156Y-63977D01*
X1122374Y-64300D01*
X1122454Y-64696D01*
X1122454Y-65061D01*
X1123649Y-67944D01*
X1124631Y-68927D01*
X1124851Y-69256D01*
X1125132Y-69935D01*
X1126847Y-71650D01*
X1129087Y-72578D01*
X1131513Y-72578D01*
X1133753Y-71650D01*
X1135468Y-69935D01*
X1135749Y-69256D01*
X1135969Y-68927D01*
X1136952Y-67944D01*
X1138146Y-65061D01*
X1138146Y-61939D01*
X1136952Y-59056D01*
X1134744Y-56849D01*
X1131861Y-55654D01*
X1131496Y-55654D01*
X1131115Y-55580D01*
X1130777Y-55356D01*
X1105700Y-30279D01*
X1105486Y-29965D01*
X1105403Y-29569D01*
X1105480Y-29172D01*
X1105858Y-28259D01*
X1106078Y-27930D01*
X1113390Y-20618D01*
X1113712Y-20400D01*
X1114109Y-20320D01*
X1154936Y-20320D01*
X1155294Y-20385D01*
X1155637Y-20601D01*
X1155868Y-20932D01*
X1155952Y-21328D01*
X1155874Y-21725D01*
X1154938Y-23985D01*
X1154938Y-103015D01*
X1156021Y-105629D01*
X1177071Y-126679D01*
X1179685Y-127762D01*
X1200149Y-127762D01*
X1200530Y-127836D01*
X1200867Y-128060D01*
X1201945Y-129137D01*
X1206210Y-130904D01*
X1210827Y-130904D01*
X1215092Y-129137D01*
X1218356Y-125873D01*
X1220122Y-121608D01*
X1220122Y-116992D01*
X1218356Y-112727D01*
X1215092Y-109463D01*
X1210827Y-107696D01*
X1206210Y-107696D01*
X1201945Y-109463D01*
X1198681Y-112727D01*
X1198605Y-112911D01*
X1198396Y-113229D01*
X1198062Y-113458D01*
X1197666Y-113538D01*
X1184467Y-113538D01*
X1184085Y-113464D01*
X1183748Y-113240D01*
X1169460Y-98952D01*
X1169242Y-98630D01*
X1169162Y-98233D01*
X1169162Y-28767D01*
X1169236Y-28385D01*
X1169460Y-28048D01*
X1176890Y-20618D01*
X1177212Y-20400D01*
X1177609Y-20320D01*
X1654346Y-20320D01*
X1654697Y-20383D01*
X1655041Y-20595D01*
X1655275Y-20925D01*
X1655362Y-21320D01*
X1655287Y-21717D01*
X1655064Y-22054D01*
X1653442Y-23676D01*
X1653120Y-23893D01*
X1652724Y-23974D01*
X1347336Y-23974D01*
X1345095Y-24902D01*
X1221707Y-148290D01*
X1221422Y-148491D01*
X1221029Y-148587D01*
X1220630Y-148523D01*
X1220288Y-148307D01*
X1220056Y-147976D01*
X1219973Y-147580D01*
X1220050Y-147183D01*
X1220122Y-147008D01*
X1220122Y-142392D01*
X1218356Y-138127D01*
X1215092Y-134863D01*
X1210827Y-133096D01*
X1206210Y-133096D01*
X1201945Y-134863D01*
X1198681Y-138127D01*
X1196914Y-142392D01*
X1196914Y-147008D01*
X1198681Y-151273D01*
X1201945Y-154537D01*
X1206210Y-156304D01*
X1210827Y-156304D01*
X1211002Y-156232D01*
X1211342Y-156155D01*
X1211741Y-156217D01*
X1212085Y-156429D01*
X1212319Y-156759D01*
X1212406Y-157154D01*
X1212332Y-157552D01*
X1212109Y-157889D01*
X1211784Y-158214D01*
X1211469Y-158428D01*
X1211073Y-158511D01*
X1210996Y-158496D01*
X1206210Y-158496D01*
X1201945Y-160263D01*
X1198681Y-163527D01*
X1196914Y-167792D01*
X1196914Y-172408D01*
X1198681Y-176673D01*
X1201945Y-179937D01*
X1206210Y-181704D01*
X1210827Y-181704D01*
X1215092Y-179937D01*
X1218356Y-176673D01*
X1220122Y-172408D01*
X1220122Y-167642D01*
X1220107Y-167569D01*
X1220181Y-167172D01*
X1220405Y-166835D01*
X1350776Y-36463D01*
X1351098Y-36246D01*
X1351495Y-36166D01*
X1375160Y-36166D01*
X1375511Y-36228D01*
X1375856Y-36441D01*
X1376089Y-36771D01*
X1376176Y-37166D01*
X1376102Y-37563D01*
X1375879Y-37900D01*
X1239432Y-174347D01*
X1238504Y-176587D01*
X1238504Y-314554D01*
X1238430Y-314935D01*
X1238206Y-315273D01*
X1209853Y-343626D01*
X1209531Y-343843D01*
X1209134Y-343924D01*
X1199221Y-343924D01*
X1198839Y-343849D01*
X1198502Y-343626D01*
X1198244Y-343368D01*
X1195361Y-342174D01*
X1192239Y-342174D01*
X1189356Y-343368D01*
X1188092Y-344632D01*
X1187785Y-344842D01*
X1187390Y-344929D01*
X1186992Y-344855D01*
X1186655Y-344632D01*
X1162094Y-320070D01*
X1161876Y-319748D01*
X1161796Y-319351D01*
X1161796Y-141469D01*
X1160868Y-139228D01*
X1068005Y-46365D01*
X1067791Y-46051D01*
X1067707Y-45655D01*
X1067722Y-45577D01*
X1067722Y-40792D01*
X1065956Y-36527D01*
X1062692Y-33263D01*
X1058427Y-31496D01*
X1053810Y-31496D01*
X1049545Y-33263D01*
X1046281Y-36527D01*
X1044514Y-40792D01*
X1044514Y-45408D01*
X1046281Y-49673D01*
X1049545Y-52937D01*
X1053810Y-54704D01*
X1058576Y-54704D01*
X1058649Y-54689D01*
X1059047Y-54763D01*
X1059384Y-54986D01*
X1059709Y-55311D01*
X1059909Y-55597D01*
X1060005Y-55989D01*
X1059941Y-56388D01*
X1059726Y-56731D01*
X1059394Y-56962D01*
X1058998Y-57046D01*
X1058602Y-56968D01*
X1058427Y-56896D01*
X1053810Y-56896D01*
X1049545Y-58663D01*
X1046281Y-61927D01*
X1044514Y-66192D01*
X1044514Y-70808D01*
X1046281Y-75073D01*
X1049545Y-78337D01*
X1053810Y-80104D01*
X1058576Y-80104D01*
X1058649Y-80089D01*
X1059047Y-80163D01*
X1059384Y-80386D01*
X1059709Y-80711D01*
X1059909Y-80997D01*
X1060005Y-81389D01*
X1059941Y-81788D01*
X1059726Y-82131D01*
X1059394Y-82362D01*
X1058998Y-82446D01*
X1058602Y-82368D01*
X1058427Y-82296D01*
X1053810Y-82296D01*
X1049545Y-84063D01*
X1046281Y-87327D01*
X1044514Y-91592D01*
X1044514Y-96208D01*
X1046281Y-100473D01*
X1049545Y-103737D01*
X1053810Y-105504D01*
X1058427Y-105504D01*
X1062692Y-103737D01*
X1065956Y-100473D01*
X1067722Y-96208D01*
X1067722Y-91592D01*
X1067650Y-91417D01*
X1067574Y-91077D01*
X1067635Y-90677D01*
X1067848Y-90333D01*
X1068177Y-90099D01*
X1068572Y-90012D01*
X1068970Y-90086D01*
X1069307Y-90310D01*
X1123906Y-144909D01*
X1124124Y-145231D01*
X1124204Y-145628D01*
X1124204Y-306013D01*
X1125132Y-308253D01*
X1198356Y-381477D01*
X1198574Y-381800D01*
X1198654Y-382196D01*
X1198654Y-382561D01*
X1199849Y-385444D01*
X1202056Y-387652D01*
X1204939Y-388846D01*
X1205077Y-388846D01*
X1205429Y-388909D01*
X1205773Y-389121D01*
X1206007Y-389451D01*
X1206093Y-389846D01*
X1206019Y-390243D01*
X1205796Y-390580D01*
X1203380Y-392996D01*
X1203088Y-393200D01*
G37*
%LPC*%
G36*
X1206210Y-54704D02*
X1210827Y-54704D01*
X1215092Y-52937D01*
X1218356Y-49673D01*
X1220122Y-45408D01*
X1220122Y-40792D01*
X1218356Y-36527D01*
X1215092Y-33263D01*
X1210827Y-31496D01*
X1206210Y-31496D01*
X1201945Y-33263D01*
X1198681Y-36527D01*
X1196914Y-40792D01*
X1196914Y-45408D01*
X1198681Y-49673D01*
X1201945Y-52937D01*
X1206210Y-54704D01*
G37*
G36*
X1198438Y-67738D02*
X1207756Y-67738D01*
X1207756Y-58420D01*
X1206513Y-58420D01*
X1202808Y-59955D01*
X1199973Y-62790D01*
X1198438Y-66495D01*
X1198438Y-67738D01*
G37*
G36*
X1209280Y-67738D02*
X1218598Y-67738D01*
X1218598Y-66495D01*
X1217064Y-62790D01*
X1214228Y-59955D01*
X1210523Y-58420D01*
X1209280Y-58420D01*
X1209280Y-67738D01*
G37*
G36*
X1209280Y-78580D02*
X1210523Y-78580D01*
X1214228Y-77045D01*
X1217064Y-74210D01*
X1218598Y-70505D01*
X1218598Y-69262D01*
X1209280Y-69262D01*
X1209280Y-78580D01*
G37*
G36*
X1206513Y-78580D02*
X1207756Y-78580D01*
X1207756Y-69262D01*
X1198438Y-69262D01*
X1198438Y-70505D01*
X1199973Y-74210D01*
X1202808Y-77045D01*
X1206513Y-78580D01*
G37*
G36*
X1206210Y-105504D02*
X1210827Y-105504D01*
X1215092Y-103737D01*
X1218356Y-100473D01*
X1220122Y-96208D01*
X1220122Y-91592D01*
X1218356Y-87327D01*
X1215092Y-84063D01*
X1210827Y-82296D01*
X1206210Y-82296D01*
X1201945Y-84063D01*
X1198681Y-87327D01*
X1196914Y-91592D01*
X1196914Y-96208D01*
X1198681Y-100473D01*
X1201945Y-103737D01*
X1206210Y-105504D01*
G37*
G36*
X1053810Y-130904D02*
X1058427Y-130904D01*
X1062692Y-129137D01*
X1065956Y-125873D01*
X1067722Y-121608D01*
X1067722Y-116992D01*
X1065956Y-112727D01*
X1062692Y-109463D01*
X1058427Y-107696D01*
X1053810Y-107696D01*
X1049545Y-109463D01*
X1046281Y-112727D01*
X1044514Y-116992D01*
X1044514Y-121608D01*
X1046281Y-125873D01*
X1049545Y-129137D01*
X1053810Y-130904D01*
G37*
G36*
X1053810Y-156304D02*
X1058427Y-156304D01*
X1062692Y-154537D01*
X1065956Y-151273D01*
X1067722Y-147008D01*
X1067722Y-142392D01*
X1065956Y-138127D01*
X1062692Y-134863D01*
X1058427Y-133096D01*
X1053810Y-133096D01*
X1049545Y-134863D01*
X1046281Y-138127D01*
X1044514Y-142392D01*
X1044514Y-147008D01*
X1046281Y-151273D01*
X1049545Y-154537D01*
X1053810Y-156304D01*
G37*
G36*
X1053810Y-181704D02*
X1058427Y-181704D01*
X1062692Y-179937D01*
X1065956Y-176673D01*
X1067722Y-172408D01*
X1067722Y-167792D01*
X1065956Y-163527D01*
X1062692Y-160263D01*
X1058427Y-158496D01*
X1053810Y-158496D01*
X1049545Y-160263D01*
X1046281Y-163527D01*
X1044514Y-167792D01*
X1044514Y-172408D01*
X1046281Y-176673D01*
X1049545Y-179937D01*
X1053810Y-181704D01*
G37*
G36*
X1053810Y-207104D02*
X1058427Y-207104D01*
X1062692Y-205337D01*
X1065956Y-202073D01*
X1067722Y-197808D01*
X1067722Y-193192D01*
X1065956Y-188927D01*
X1062692Y-185663D01*
X1058427Y-183896D01*
X1053810Y-183896D01*
X1049545Y-185663D01*
X1046281Y-188927D01*
X1044514Y-193192D01*
X1044514Y-197808D01*
X1046281Y-202073D01*
X1049545Y-205337D01*
X1053810Y-207104D01*
G37*
G36*
X1206210Y-207104D02*
X1210827Y-207104D01*
X1215092Y-205337D01*
X1218356Y-202073D01*
X1220122Y-197808D01*
X1220122Y-193192D01*
X1218356Y-188927D01*
X1215092Y-185663D01*
X1210827Y-183896D01*
X1206210Y-183896D01*
X1201945Y-185663D01*
X1198681Y-188927D01*
X1196914Y-193192D01*
X1196914Y-197808D01*
X1198681Y-202073D01*
X1201945Y-205337D01*
X1206210Y-207104D01*
G37*
G36*
X1053810Y-232504D02*
X1058427Y-232504D01*
X1062692Y-230737D01*
X1065956Y-227473D01*
X1067722Y-223208D01*
X1067722Y-218592D01*
X1065956Y-214327D01*
X1062692Y-211063D01*
X1058427Y-209296D01*
X1053810Y-209296D01*
X1049545Y-211063D01*
X1046281Y-214327D01*
X1044514Y-218592D01*
X1044514Y-223208D01*
X1046281Y-227473D01*
X1049545Y-230737D01*
X1053810Y-232504D01*
G37*
G36*
X1206210Y-232504D02*
X1210827Y-232504D01*
X1215092Y-230737D01*
X1218356Y-227473D01*
X1220122Y-223208D01*
X1220122Y-218592D01*
X1218356Y-214327D01*
X1215092Y-211063D01*
X1210827Y-209296D01*
X1206210Y-209296D01*
X1201945Y-211063D01*
X1198681Y-214327D01*
X1196914Y-218592D01*
X1196914Y-223208D01*
X1198681Y-227473D01*
X1201945Y-230737D01*
X1206210Y-232504D01*
G37*
G36*
X1206210Y-257904D02*
X1210827Y-257904D01*
X1215092Y-256137D01*
X1218356Y-252873D01*
X1220122Y-248608D01*
X1220122Y-243992D01*
X1218356Y-239727D01*
X1215092Y-236463D01*
X1210827Y-234696D01*
X1206210Y-234696D01*
X1201945Y-236463D01*
X1198681Y-239727D01*
X1196914Y-243992D01*
X1196914Y-248608D01*
X1198681Y-252873D01*
X1201945Y-256137D01*
X1206210Y-257904D01*
G37*
G36*
X1053810Y-257904D02*
X1058427Y-257904D01*
X1062692Y-256137D01*
X1065956Y-252873D01*
X1067722Y-248608D01*
X1067722Y-243992D01*
X1065956Y-239727D01*
X1062692Y-236463D01*
X1058427Y-234696D01*
X1053810Y-234696D01*
X1049545Y-236463D01*
X1046281Y-239727D01*
X1044514Y-243992D01*
X1044514Y-248608D01*
X1046281Y-252873D01*
X1049545Y-256137D01*
X1053810Y-257904D01*
G37*
G36*
X1053810Y-283304D02*
X1058427Y-283304D01*
X1062692Y-281537D01*
X1065956Y-278273D01*
X1067722Y-274008D01*
X1067722Y-269392D01*
X1065956Y-265127D01*
X1062692Y-261863D01*
X1058427Y-260096D01*
X1053810Y-260096D01*
X1049545Y-261863D01*
X1046281Y-265127D01*
X1044514Y-269392D01*
X1044514Y-274008D01*
X1046281Y-278273D01*
X1049545Y-281537D01*
X1053810Y-283304D01*
G37*
G36*
X1206210Y-283304D02*
X1210827Y-283304D01*
X1215092Y-281537D01*
X1218356Y-278273D01*
X1220122Y-274008D01*
X1220122Y-269392D01*
X1218356Y-265127D01*
X1215092Y-261863D01*
X1210827Y-260096D01*
X1206210Y-260096D01*
X1201945Y-261863D01*
X1198681Y-265127D01*
X1196914Y-269392D01*
X1196914Y-274008D01*
X1198681Y-278273D01*
X1201945Y-281537D01*
X1206210Y-283304D01*
G37*
G36*
X1053810Y-308704D02*
X1058427Y-308704D01*
X1062692Y-306937D01*
X1065956Y-303673D01*
X1067722Y-299408D01*
X1067722Y-294792D01*
X1065956Y-290527D01*
X1062692Y-287263D01*
X1058427Y-285496D01*
X1053810Y-285496D01*
X1049545Y-287263D01*
X1046281Y-290527D01*
X1044514Y-294792D01*
X1044514Y-299408D01*
X1046281Y-303673D01*
X1049545Y-306937D01*
X1053810Y-308704D01*
G37*
G36*
X1206210Y-308704D02*
X1210827Y-308704D01*
X1215092Y-306937D01*
X1218356Y-303673D01*
X1220122Y-299408D01*
X1220122Y-294792D01*
X1218356Y-290527D01*
X1215092Y-287263D01*
X1210827Y-285496D01*
X1206210Y-285496D01*
X1201945Y-287263D01*
X1198681Y-290527D01*
X1196914Y-294792D01*
X1196914Y-299408D01*
X1198681Y-303673D01*
X1201945Y-306937D01*
X1206210Y-308704D01*
G37*
G36*
X1206210Y-334104D02*
X1210827Y-334104D01*
X1215092Y-332337D01*
X1218356Y-329073D01*
X1220122Y-324808D01*
X1220122Y-320192D01*
X1218356Y-315927D01*
X1215092Y-312663D01*
X1210827Y-310896D01*
X1206210Y-310896D01*
X1201945Y-312663D01*
X1198681Y-315927D01*
X1196914Y-320192D01*
X1196914Y-324808D01*
X1198681Y-329073D01*
X1201945Y-332337D01*
X1206210Y-334104D01*
G37*
G36*
X1053810Y-334104D02*
X1058427Y-334104D01*
X1062692Y-332337D01*
X1065956Y-329073D01*
X1067722Y-324808D01*
X1067722Y-320192D01*
X1065956Y-315927D01*
X1062692Y-312663D01*
X1058427Y-310896D01*
X1053810Y-310896D01*
X1049545Y-312663D01*
X1046281Y-315927D01*
X1044514Y-320192D01*
X1044514Y-324808D01*
X1046281Y-329073D01*
X1049545Y-332337D01*
X1053810Y-334104D01*
G37*
%LPD*%
G36*
X840060Y-726044D02*
X839663Y-726124D01*
X836766Y-726124D01*
X836385Y-726050D01*
X836047Y-725826D01*
X778153Y-667932D01*
X775913Y-667004D01*
X769112Y-667004D01*
X768746Y-666936D01*
X768405Y-666718D01*
X768176Y-666384D01*
X768096Y-665988D01*
X768096Y-506787D01*
X767168Y-504547D01*
X754221Y-491600D01*
X754010Y-491293D01*
X753923Y-490898D01*
X753998Y-490500D01*
X754221Y-490163D01*
X767168Y-477216D01*
X768096Y-474976D01*
X768096Y-316287D01*
X767168Y-314047D01*
X758639Y-305518D01*
X758429Y-305211D01*
X758342Y-304816D01*
X758416Y-304419D01*
X758639Y-304082D01*
X767168Y-295553D01*
X768096Y-293313D01*
X768096Y-151187D01*
X767168Y-148947D01*
X739736Y-121515D01*
X739522Y-121200D01*
X739438Y-120804D01*
X739515Y-120407D01*
X740664Y-117635D01*
X740664Y-110965D01*
X739797Y-108873D01*
X739720Y-108508D01*
X739791Y-108110D01*
X740012Y-107771D01*
X740347Y-107545D01*
X747170Y-104719D01*
X752419Y-99470D01*
X755260Y-92612D01*
X755260Y-85188D01*
X752419Y-78330D01*
X747170Y-73081D01*
X740312Y-70240D01*
X732888Y-70240D01*
X726030Y-73081D01*
X720781Y-78330D01*
X718240Y-84465D01*
X717951Y-84857D01*
X717595Y-85049D01*
X717192Y-85086D01*
X716807Y-84964D01*
X716500Y-84701D01*
X716320Y-84339D01*
X714371Y-77066D01*
X710334Y-70074D01*
X704626Y-64366D01*
X704338Y-64200D01*
X704163Y-64072D01*
X703924Y-63746D01*
X703831Y-63352D01*
X703898Y-62954D01*
X704116Y-62613D01*
X704450Y-62384D01*
X704846Y-62304D01*
X857254Y-62304D01*
X857470Y-62327D01*
X857840Y-62490D01*
X858117Y-62784D01*
X858258Y-63163D01*
X858239Y-63567D01*
X858065Y-63932D01*
X857762Y-64200D01*
X857474Y-64366D01*
X851766Y-70074D01*
X847729Y-77066D01*
X845780Y-84339D01*
X845546Y-84766D01*
X845218Y-85002D01*
X844823Y-85092D01*
X844425Y-85021D01*
X844086Y-84800D01*
X843860Y-84465D01*
X841319Y-78330D01*
X836070Y-73081D01*
X829212Y-70240D01*
X821788Y-70240D01*
X814930Y-73081D01*
X809681Y-78330D01*
X806840Y-85188D01*
X806840Y-92612D01*
X809681Y-99470D01*
X814930Y-104719D01*
X821788Y-107560D01*
X829212Y-107560D01*
X836070Y-104719D01*
X841319Y-99470D01*
X843860Y-93335D01*
X844149Y-92943D01*
X844505Y-92751D01*
X844908Y-92714D01*
X845293Y-92836D01*
X845600Y-93099D01*
X845780Y-93461D01*
X847729Y-100734D01*
X851766Y-107726D01*
X857474Y-113434D01*
X864466Y-117471D01*
X872264Y-119560D01*
X880336Y-119560D01*
X888134Y-117471D01*
X895126Y-113434D01*
X895902Y-112658D01*
X896194Y-112454D01*
X896588Y-112361D01*
X896986Y-112429D01*
X897327Y-112647D01*
X897556Y-112980D01*
X897636Y-113377D01*
X897636Y-117635D01*
X900188Y-123796D01*
X904904Y-128512D01*
X911065Y-131064D01*
X917735Y-131064D01*
X920507Y-129915D01*
X920880Y-129838D01*
X921278Y-129912D01*
X921615Y-130136D01*
X933406Y-141927D01*
X933624Y-142250D01*
X933704Y-142646D01*
X933704Y-242513D01*
X934632Y-244753D01*
X946106Y-256227D01*
X946324Y-256550D01*
X946404Y-256946D01*
X946404Y-272135D01*
X946344Y-272479D01*
X946134Y-272825D01*
X945807Y-273061D01*
X945412Y-273151D01*
X945014Y-273080D01*
X944675Y-272859D01*
X944449Y-272524D01*
X942919Y-268830D01*
X937670Y-263581D01*
X930812Y-260740D01*
X923388Y-260740D01*
X916530Y-263581D01*
X911281Y-268830D01*
X908740Y-274965D01*
X908451Y-275357D01*
X908095Y-275549D01*
X907692Y-275586D01*
X907307Y-275464D01*
X907000Y-275201D01*
X906820Y-274839D01*
X904871Y-267566D01*
X900834Y-260574D01*
X895126Y-254866D01*
X888134Y-250829D01*
X880336Y-248740D01*
X872264Y-248740D01*
X864466Y-250829D01*
X857474Y-254866D01*
X851766Y-260574D01*
X847729Y-267566D01*
X845780Y-274839D01*
X845546Y-275266D01*
X845218Y-275502D01*
X844823Y-275592D01*
X844425Y-275521D01*
X844086Y-275300D01*
X843860Y-274965D01*
X841319Y-268830D01*
X836070Y-263581D01*
X829212Y-260740D01*
X821788Y-260740D01*
X814930Y-263581D01*
X809681Y-268830D01*
X806840Y-275688D01*
X806840Y-283112D01*
X809681Y-289970D01*
X814930Y-295219D01*
X821788Y-298060D01*
X829212Y-298060D01*
X836070Y-295219D01*
X841319Y-289970D01*
X843860Y-283835D01*
X844149Y-283443D01*
X844505Y-283251D01*
X844908Y-283214D01*
X845293Y-283336D01*
X845600Y-283599D01*
X845780Y-283961D01*
X847729Y-291234D01*
X851766Y-298226D01*
X857474Y-303934D01*
X864466Y-307971D01*
X872264Y-310060D01*
X880336Y-310060D01*
X888134Y-307971D01*
X895126Y-303934D01*
X895902Y-303158D01*
X896194Y-302954D01*
X896588Y-302861D01*
X896986Y-302929D01*
X897327Y-303147D01*
X897556Y-303480D01*
X897636Y-303877D01*
X897636Y-308135D01*
X900188Y-314296D01*
X904904Y-319012D01*
X911065Y-321564D01*
X917735Y-321564D01*
X923896Y-319012D01*
X928612Y-314296D01*
X929760Y-311523D01*
X929969Y-311205D01*
X930303Y-310976D01*
X930699Y-310896D01*
X936854Y-310896D01*
X937235Y-310970D01*
X937573Y-311194D01*
X946106Y-319727D01*
X946324Y-320050D01*
X946404Y-320446D01*
X946404Y-462635D01*
X946344Y-462979D01*
X946134Y-463325D01*
X945807Y-463561D01*
X945412Y-463651D01*
X945014Y-463580D01*
X944675Y-463359D01*
X944449Y-463024D01*
X942919Y-459330D01*
X937670Y-454081D01*
X930812Y-451240D01*
X923388Y-451240D01*
X916530Y-454081D01*
X911281Y-459330D01*
X908740Y-465465D01*
X908451Y-465857D01*
X908095Y-466049D01*
X907692Y-466086D01*
X907307Y-465964D01*
X907000Y-465701D01*
X906820Y-465339D01*
X904871Y-458066D01*
X900834Y-451074D01*
X895126Y-445366D01*
X888134Y-441329D01*
X880336Y-439240D01*
X872264Y-439240D01*
X864466Y-441329D01*
X857474Y-445366D01*
X851766Y-451074D01*
X847729Y-458066D01*
X845780Y-465339D01*
X845546Y-465766D01*
X845218Y-466002D01*
X844823Y-466092D01*
X844425Y-466021D01*
X844086Y-465800D01*
X843860Y-465465D01*
X841319Y-459330D01*
X836070Y-454081D01*
X829212Y-451240D01*
X821788Y-451240D01*
X814930Y-454081D01*
X809681Y-459330D01*
X806840Y-466188D01*
X806840Y-473612D01*
X809681Y-480470D01*
X814930Y-485719D01*
X821788Y-488560D01*
X829212Y-488560D01*
X836070Y-485719D01*
X841319Y-480470D01*
X843860Y-474335D01*
X844149Y-473943D01*
X844505Y-473751D01*
X844908Y-473714D01*
X845293Y-473836D01*
X845600Y-474099D01*
X845780Y-474461D01*
X847729Y-481734D01*
X851766Y-488726D01*
X857474Y-494434D01*
X864466Y-498471D01*
X872264Y-500560D01*
X880336Y-500560D01*
X888134Y-498471D01*
X895126Y-494434D01*
X895902Y-493658D01*
X896194Y-493454D01*
X896588Y-493361D01*
X896986Y-493429D01*
X897327Y-493647D01*
X897556Y-493980D01*
X897636Y-494377D01*
X897636Y-498635D01*
X900188Y-504796D01*
X904904Y-509512D01*
X911065Y-512064D01*
X917735Y-512064D01*
X923896Y-509512D01*
X928612Y-504796D01*
X929760Y-502023D01*
X929969Y-501705D01*
X930303Y-501476D01*
X930699Y-501396D01*
X936854Y-501396D01*
X937235Y-501470D01*
X937573Y-501694D01*
X946106Y-510227D01*
X946324Y-510550D01*
X946404Y-510946D01*
X946404Y-653135D01*
X946344Y-653479D01*
X946134Y-653825D01*
X945807Y-654061D01*
X945412Y-654151D01*
X945014Y-654080D01*
X944675Y-653859D01*
X944449Y-653524D01*
X942919Y-649830D01*
X937670Y-644581D01*
X930812Y-641740D01*
X923388Y-641740D01*
X916530Y-644581D01*
X911281Y-649830D01*
X908740Y-655965D01*
X908451Y-656357D01*
X908095Y-656549D01*
X907692Y-656586D01*
X907307Y-656464D01*
X907000Y-656201D01*
X906820Y-655839D01*
X904871Y-648566D01*
X900834Y-641574D01*
X895126Y-635866D01*
X888134Y-631829D01*
X880336Y-629740D01*
X872264Y-629740D01*
X864466Y-631829D01*
X857474Y-635866D01*
X851766Y-641574D01*
X847729Y-648566D01*
X845780Y-655839D01*
X845546Y-656266D01*
X845218Y-656502D01*
X844823Y-656592D01*
X844425Y-656521D01*
X844086Y-656300D01*
X843860Y-655965D01*
X841319Y-649830D01*
X836070Y-644581D01*
X829212Y-641740D01*
X821788Y-641740D01*
X814930Y-644581D01*
X809681Y-649830D01*
X806840Y-656688D01*
X806840Y-664112D01*
X809681Y-670970D01*
X814930Y-676219D01*
X821788Y-679060D01*
X829212Y-679060D01*
X836070Y-676219D01*
X841319Y-670970D01*
X843860Y-664835D01*
X844149Y-664443D01*
X844505Y-664251D01*
X844908Y-664214D01*
X845293Y-664336D01*
X845600Y-664599D01*
X845780Y-664961D01*
X847729Y-672234D01*
X851766Y-679226D01*
X857474Y-684934D01*
X864466Y-688971D01*
X872264Y-691060D01*
X880336Y-691060D01*
X888134Y-688971D01*
X895126Y-684934D01*
X895902Y-684158D01*
X896194Y-683954D01*
X896588Y-683861D01*
X896986Y-683929D01*
X897327Y-684147D01*
X897556Y-684480D01*
X897636Y-684877D01*
X897636Y-689135D01*
X900188Y-695296D01*
X904904Y-700012D01*
X911065Y-702564D01*
X917735Y-702564D01*
X923896Y-700012D01*
X928612Y-695296D01*
X929760Y-692523D01*
X929969Y-692205D01*
X930303Y-691976D01*
X930699Y-691896D01*
X941013Y-691896D01*
X943253Y-690968D01*
X957668Y-676553D01*
X958596Y-674313D01*
X958596Y-506787D01*
X957668Y-504547D01*
X949139Y-496018D01*
X948929Y-495711D01*
X948842Y-495316D01*
X948916Y-494919D01*
X949139Y-494582D01*
X957668Y-486053D01*
X958596Y-483813D01*
X958596Y-316287D01*
X957668Y-314047D01*
X949139Y-305518D01*
X948929Y-305211D01*
X948842Y-304816D01*
X948916Y-304419D01*
X949139Y-304082D01*
X957668Y-295553D01*
X958596Y-293313D01*
X958596Y-252787D01*
X957668Y-250547D01*
X946194Y-239073D01*
X945976Y-238750D01*
X945896Y-238354D01*
X945896Y-138487D01*
X944968Y-136247D01*
X930236Y-121515D01*
X930022Y-121200D01*
X929938Y-120804D01*
X930015Y-120407D01*
X931164Y-117635D01*
X931164Y-110965D01*
X930297Y-108873D01*
X930220Y-108508D01*
X930291Y-108110D01*
X930512Y-107771D01*
X930847Y-107545D01*
X937670Y-104719D01*
X942919Y-99470D01*
X945760Y-92612D01*
X945760Y-85188D01*
X942919Y-78330D01*
X937670Y-73081D01*
X933976Y-71551D01*
X933681Y-71364D01*
X933442Y-71038D01*
X933349Y-70644D01*
X933417Y-70246D01*
X933635Y-69905D01*
X933968Y-69676D01*
X934365Y-69596D01*
X962254Y-69596D01*
X962635Y-69670D01*
X962973Y-69894D01*
X968790Y-75711D01*
X968991Y-75997D01*
X969087Y-76389D01*
X969023Y-76788D01*
X968807Y-77131D01*
X968476Y-77362D01*
X968080Y-77446D01*
X967683Y-77368D01*
X967508Y-77296D01*
X962892Y-77296D01*
X958627Y-79063D01*
X955363Y-82327D01*
X953596Y-86592D01*
X953596Y-91208D01*
X955363Y-95473D01*
X958627Y-98737D01*
X962892Y-100504D01*
X967508Y-100504D01*
X971773Y-98737D01*
X975037Y-95473D01*
X976804Y-91208D01*
X976804Y-86592D01*
X976732Y-86417D01*
X976655Y-86077D01*
X976717Y-85677D01*
X976929Y-85333D01*
X977259Y-85099D01*
X977654Y-85012D01*
X978052Y-85086D01*
X978389Y-85310D01*
X1022306Y-129227D01*
X1022524Y-129550D01*
X1022604Y-129946D01*
X1022604Y-236830D01*
X1022541Y-237181D01*
X1022329Y-237525D01*
X1021999Y-237759D01*
X1021604Y-237846D01*
X1021207Y-237772D01*
X1020870Y-237549D01*
X977086Y-193765D01*
X976872Y-193451D01*
X976789Y-193055D01*
X976804Y-192977D01*
X976804Y-188192D01*
X975037Y-183927D01*
X971773Y-180663D01*
X967508Y-178896D01*
X962892Y-178896D01*
X958627Y-180663D01*
X955363Y-183927D01*
X953596Y-188192D01*
X953596Y-192808D01*
X955363Y-197073D01*
X958627Y-200337D01*
X962892Y-202104D01*
X967658Y-202104D01*
X967731Y-202089D01*
X968128Y-202163D01*
X968465Y-202386D01*
X1009606Y-243527D01*
X1009824Y-243850D01*
X1009904Y-244246D01*
X1009904Y-344113D01*
X1010832Y-346353D01*
X1070685Y-406206D01*
X1072925Y-407134D01*
X1194692Y-407134D01*
X1195043Y-407197D01*
X1195387Y-407409D01*
X1195621Y-407739D01*
X1195708Y-408134D01*
X1195634Y-408531D01*
X1195411Y-408868D01*
X1142523Y-461756D01*
X1142200Y-461974D01*
X1141804Y-462054D01*
X1141439Y-462054D01*
X1138556Y-463249D01*
X1136349Y-465456D01*
X1135154Y-468339D01*
X1135154Y-471461D01*
X1136349Y-474344D01*
X1138556Y-476552D01*
X1141439Y-477746D01*
X1144561Y-477746D01*
X1147444Y-476552D01*
X1148632Y-475364D01*
X1148939Y-475154D01*
X1149334Y-475067D01*
X1149731Y-475141D01*
X1150068Y-475364D01*
X1151256Y-476552D01*
X1154139Y-477746D01*
X1157261Y-477746D01*
X1160144Y-476552D01*
X1162352Y-474344D01*
X1163546Y-471461D01*
X1163546Y-471096D01*
X1163620Y-470715D01*
X1163844Y-470377D01*
X1372077Y-262144D01*
X1372400Y-261926D01*
X1372796Y-261846D01*
X1373161Y-261846D01*
X1376044Y-260652D01*
X1376470Y-260226D01*
X1376762Y-260022D01*
X1377156Y-259929D01*
X1377554Y-259997D01*
X1377895Y-260215D01*
X1378124Y-260548D01*
X1378204Y-260945D01*
X1378204Y-318713D01*
X1379132Y-320953D01*
X1416006Y-357827D01*
X1416224Y-358150D01*
X1416304Y-358546D01*
X1416304Y-361035D01*
X1416244Y-361379D01*
X1416034Y-361725D01*
X1415707Y-361961D01*
X1415312Y-362051D01*
X1414914Y-361980D01*
X1414575Y-361759D01*
X1414349Y-361424D01*
X1412819Y-357730D01*
X1407570Y-352481D01*
X1400712Y-349640D01*
X1393288Y-349640D01*
X1386430Y-352481D01*
X1381181Y-357730D01*
X1378640Y-363865D01*
X1378351Y-364257D01*
X1377995Y-364449D01*
X1377592Y-364486D01*
X1377207Y-364364D01*
X1376900Y-364101D01*
X1376720Y-363739D01*
X1374771Y-356466D01*
X1370734Y-349474D01*
X1365026Y-343766D01*
X1358034Y-339729D01*
X1350236Y-337640D01*
X1342164Y-337640D01*
X1334366Y-339729D01*
X1327374Y-343766D01*
X1321666Y-349474D01*
X1317629Y-356466D01*
X1315680Y-363739D01*
X1315446Y-364166D01*
X1315118Y-364402D01*
X1314723Y-364492D01*
X1314325Y-364421D01*
X1313986Y-364200D01*
X1313760Y-363865D01*
X1311219Y-357730D01*
X1305970Y-352481D01*
X1299112Y-349640D01*
X1291688Y-349640D01*
X1284830Y-352481D01*
X1279581Y-357730D01*
X1276740Y-364588D01*
X1276740Y-372012D01*
X1279581Y-378870D01*
X1284830Y-384119D01*
X1291688Y-386960D01*
X1299112Y-386960D01*
X1305970Y-384119D01*
X1311219Y-378870D01*
X1313760Y-372735D01*
X1314049Y-372343D01*
X1314405Y-372151D01*
X1314808Y-372114D01*
X1315193Y-372236D01*
X1315500Y-372499D01*
X1315680Y-372861D01*
X1317629Y-380134D01*
X1321666Y-387126D01*
X1327374Y-392834D01*
X1334366Y-396871D01*
X1342164Y-398960D01*
X1350236Y-398960D01*
X1358034Y-396871D01*
X1365026Y-392834D01*
X1365802Y-392058D01*
X1366094Y-391854D01*
X1366488Y-391761D01*
X1366886Y-391829D01*
X1367227Y-392047D01*
X1367456Y-392380D01*
X1367536Y-392777D01*
X1367536Y-397035D01*
X1370088Y-403196D01*
X1374804Y-407912D01*
X1380965Y-410464D01*
X1387635Y-410464D01*
X1390407Y-409315D01*
X1390780Y-409238D01*
X1391178Y-409312D01*
X1391515Y-409536D01*
X1393547Y-411568D01*
X1395787Y-412496D01*
X1406754Y-412496D01*
X1407135Y-412570D01*
X1407473Y-412794D01*
X1416006Y-421327D01*
X1416224Y-421650D01*
X1416304Y-422046D01*
X1416304Y-551535D01*
X1416244Y-551879D01*
X1416034Y-552225D01*
X1415707Y-552461D01*
X1415312Y-552551D01*
X1414914Y-552480D01*
X1414575Y-552259D01*
X1414349Y-551924D01*
X1412819Y-548230D01*
X1407570Y-542981D01*
X1400712Y-540140D01*
X1393288Y-540140D01*
X1386430Y-542981D01*
X1381181Y-548230D01*
X1378640Y-554365D01*
X1378351Y-554757D01*
X1377995Y-554949D01*
X1377592Y-554986D01*
X1377207Y-554864D01*
X1376900Y-554601D01*
X1376720Y-554239D01*
X1374771Y-546966D01*
X1370734Y-539974D01*
X1365026Y-534266D01*
X1358034Y-530229D01*
X1350236Y-528140D01*
X1342164Y-528140D01*
X1334366Y-530229D01*
X1327374Y-534266D01*
X1321666Y-539974D01*
X1317629Y-546966D01*
X1315680Y-554239D01*
X1315446Y-554666D01*
X1315118Y-554902D01*
X1314723Y-554992D01*
X1314325Y-554921D01*
X1313986Y-554700D01*
X1313760Y-554365D01*
X1311219Y-548230D01*
X1305970Y-542981D01*
X1299112Y-540140D01*
X1291688Y-540140D01*
X1284830Y-542981D01*
X1279581Y-548230D01*
X1276740Y-555088D01*
X1276740Y-562512D01*
X1279581Y-569370D01*
X1284830Y-574619D01*
X1291688Y-577460D01*
X1299112Y-577460D01*
X1305970Y-574619D01*
X1311219Y-569370D01*
X1313760Y-563235D01*
X1314049Y-562843D01*
X1314405Y-562651D01*
X1314808Y-562614D01*
X1315193Y-562736D01*
X1315500Y-562999D01*
X1315680Y-563361D01*
X1317629Y-570634D01*
X1321666Y-577626D01*
X1327374Y-583334D01*
X1334366Y-587371D01*
X1342164Y-589460D01*
X1350236Y-589460D01*
X1358034Y-587371D01*
X1365026Y-583334D01*
X1365802Y-582558D01*
X1366094Y-582354D01*
X1366488Y-582261D01*
X1366886Y-582329D01*
X1367227Y-582547D01*
X1367456Y-582880D01*
X1367536Y-583277D01*
X1367536Y-587535D01*
X1370088Y-593696D01*
X1374804Y-598412D01*
X1380965Y-600964D01*
X1387635Y-600964D01*
X1393796Y-598412D01*
X1398512Y-593696D01*
X1399660Y-590923D01*
X1399869Y-590605D01*
X1400203Y-590376D01*
X1400599Y-590296D01*
X1410913Y-590296D01*
X1413153Y-589368D01*
X1427568Y-574953D01*
X1428496Y-572713D01*
X1428496Y-519345D01*
X1428561Y-518986D01*
X1428777Y-518644D01*
X1429108Y-518413D01*
X1429504Y-518329D01*
X1429901Y-518407D01*
X1432792Y-519604D01*
X1437408Y-519604D01*
X1441673Y-517837D01*
X1444937Y-514573D01*
X1446704Y-510308D01*
X1446704Y-505692D01*
X1444937Y-501427D01*
X1441673Y-498163D01*
X1437408Y-496396D01*
X1432792Y-496396D01*
X1429901Y-497594D01*
X1429544Y-497670D01*
X1429146Y-497603D01*
X1428805Y-497385D01*
X1428576Y-497051D01*
X1428496Y-496655D01*
X1428496Y-443145D01*
X1428561Y-442786D01*
X1428777Y-442444D01*
X1429108Y-442213D01*
X1429504Y-442129D01*
X1429901Y-442207D01*
X1432792Y-443404D01*
X1437408Y-443404D01*
X1441673Y-441637D01*
X1444937Y-438373D01*
X1446704Y-434108D01*
X1446704Y-429492D01*
X1444937Y-425227D01*
X1441673Y-421963D01*
X1437408Y-420196D01*
X1432792Y-420196D01*
X1429901Y-421394D01*
X1429544Y-421470D01*
X1429146Y-421403D01*
X1428805Y-421185D01*
X1428576Y-420851D01*
X1428496Y-420455D01*
X1428496Y-417887D01*
X1427568Y-415647D01*
X1419039Y-407118D01*
X1418829Y-406811D01*
X1418742Y-406416D01*
X1418816Y-406019D01*
X1419039Y-405682D01*
X1427568Y-397153D01*
X1428496Y-394913D01*
X1428496Y-354387D01*
X1427568Y-352147D01*
X1390694Y-315273D01*
X1390476Y-314950D01*
X1390396Y-314554D01*
X1390396Y-219499D01*
X1390467Y-219125D01*
X1390688Y-218786D01*
X1391023Y-218560D01*
X1393796Y-217412D01*
X1398512Y-212696D01*
X1401064Y-206535D01*
X1401064Y-199865D01*
X1400197Y-197773D01*
X1400120Y-197408D01*
X1400191Y-197010D01*
X1400412Y-196671D01*
X1400747Y-196445D01*
X1407570Y-193619D01*
X1412819Y-188370D01*
X1415660Y-181512D01*
X1415660Y-174088D01*
X1412819Y-167230D01*
X1407570Y-161981D01*
X1400712Y-159140D01*
X1393288Y-159140D01*
X1386430Y-161981D01*
X1381181Y-167230D01*
X1378640Y-173365D01*
X1378351Y-173757D01*
X1377995Y-173949D01*
X1377592Y-173986D01*
X1377207Y-173864D01*
X1376900Y-173601D01*
X1376720Y-173239D01*
X1374771Y-165966D01*
X1370734Y-158974D01*
X1365026Y-153266D01*
X1358034Y-149229D01*
X1350236Y-147140D01*
X1342164Y-147140D01*
X1334366Y-149229D01*
X1327374Y-153266D01*
X1321666Y-158974D01*
X1317629Y-165966D01*
X1315680Y-173239D01*
X1315446Y-173666D01*
X1315118Y-173902D01*
X1314723Y-173992D01*
X1314325Y-173921D01*
X1313986Y-173700D01*
X1313760Y-173365D01*
X1311219Y-167230D01*
X1305970Y-161981D01*
X1299112Y-159140D01*
X1295871Y-159140D01*
X1295520Y-159077D01*
X1295176Y-158865D01*
X1294942Y-158535D01*
X1294855Y-158140D01*
X1294929Y-157743D01*
X1295153Y-157406D01*
X1331865Y-120694D01*
X1332187Y-120476D01*
X1332583Y-120396D01*
X1368654Y-120396D01*
X1369035Y-120470D01*
X1369373Y-120694D01*
X1428706Y-180027D01*
X1428924Y-180350D01*
X1429004Y-180746D01*
X1429004Y-230586D01*
X1428933Y-230960D01*
X1428712Y-231299D01*
X1428646Y-231343D01*
X1425263Y-234727D01*
X1423496Y-238992D01*
X1423496Y-243608D01*
X1425263Y-247873D01*
X1428527Y-251137D01*
X1432792Y-252904D01*
X1437408Y-252904D01*
X1441673Y-251137D01*
X1444937Y-247873D01*
X1446704Y-243608D01*
X1446704Y-238992D01*
X1444937Y-234727D01*
X1441567Y-231357D01*
X1441505Y-231316D01*
X1441276Y-230982D01*
X1441196Y-230586D01*
X1441196Y-176587D01*
X1440268Y-174347D01*
X1375053Y-109132D01*
X1372813Y-108204D01*
X1328425Y-108204D01*
X1326184Y-109132D01*
X1252430Y-182886D01*
X1252138Y-183090D01*
X1251744Y-183183D01*
X1251346Y-183115D01*
X1251005Y-182897D01*
X1250776Y-182563D01*
X1250696Y-182167D01*
X1250696Y-180746D01*
X1250770Y-180365D01*
X1250994Y-180027D01*
X1386527Y-44494D01*
X1386850Y-44276D01*
X1387246Y-44196D01*
X1641350Y-44196D01*
X1641732Y-44270D01*
X1642069Y-44494D01*
X1695146Y-97571D01*
X1695360Y-97885D01*
X1695443Y-98281D01*
X1695366Y-98678D01*
X1694992Y-99580D01*
X1694992Y-104936D01*
X1697042Y-109884D01*
X1700828Y-113671D01*
X1703662Y-114844D01*
X1703962Y-115036D01*
X1704199Y-115364D01*
X1704289Y-115759D01*
X1704218Y-116157D01*
X1703997Y-116495D01*
X1703662Y-116721D01*
X1701692Y-117537D01*
X1698334Y-120896D01*
X1696516Y-125283D01*
X1696516Y-126896D01*
X1709216Y-126896D01*
X1709216Y-128420D01*
X1696516Y-128420D01*
X1696516Y-130033D01*
X1698334Y-134420D01*
X1701692Y-137779D01*
X1703662Y-138595D01*
X1703962Y-138787D01*
X1704199Y-139115D01*
X1704289Y-139509D01*
X1704218Y-139907D01*
X1703997Y-140246D01*
X1703662Y-140472D01*
X1700828Y-141646D01*
X1697042Y-145432D01*
X1694992Y-150380D01*
X1694992Y-155736D01*
X1697042Y-160684D01*
X1700828Y-164471D01*
X1701671Y-164819D01*
X1701971Y-165012D01*
X1702208Y-165339D01*
X1702297Y-165734D01*
X1702227Y-166132D01*
X1702006Y-166471D01*
X1701671Y-166697D01*
X1700828Y-167046D01*
X1697042Y-170832D01*
X1694992Y-175780D01*
X1694992Y-181136D01*
X1697042Y-186084D01*
X1700828Y-189871D01*
X1701671Y-190219D01*
X1701971Y-190412D01*
X1702208Y-190739D01*
X1702297Y-191134D01*
X1702227Y-191532D01*
X1702006Y-191871D01*
X1701671Y-192097D01*
X1700828Y-192446D01*
X1697042Y-196232D01*
X1694992Y-201180D01*
X1694992Y-206536D01*
X1697042Y-211484D01*
X1700828Y-215271D01*
X1701671Y-215619D01*
X1701971Y-215812D01*
X1702208Y-216139D01*
X1702297Y-216534D01*
X1702227Y-216932D01*
X1702006Y-217271D01*
X1701671Y-217497D01*
X1700828Y-217846D01*
X1697042Y-221632D01*
X1696668Y-222535D01*
X1696459Y-222853D01*
X1696125Y-223082D01*
X1695729Y-223162D01*
X1675207Y-223162D01*
X1674825Y-223088D01*
X1674488Y-222864D01*
X1669468Y-217844D01*
X1667227Y-216916D01*
X1634773Y-216916D01*
X1632532Y-217844D01*
X1614844Y-235532D01*
X1613916Y-237773D01*
X1613916Y-270227D01*
X1614844Y-272468D01*
X1642592Y-300216D01*
X1642809Y-300538D01*
X1642890Y-300934D01*
X1642890Y-582780D01*
X1642816Y-583161D01*
X1642592Y-583499D01*
X1628865Y-597226D01*
X1628551Y-597440D01*
X1628155Y-597523D01*
X1628077Y-597508D01*
X1623292Y-597508D01*
X1619027Y-599275D01*
X1615763Y-602539D01*
X1613996Y-606804D01*
X1613996Y-611420D01*
X1614414Y-612428D01*
X1614490Y-612768D01*
X1614428Y-613168D01*
X1614216Y-613512D01*
X1613886Y-613746D01*
X1613491Y-613833D01*
X1613094Y-613759D01*
X1612757Y-613535D01*
X1591251Y-592030D01*
X1591047Y-591738D01*
X1590954Y-591344D01*
X1591022Y-590946D01*
X1591240Y-590605D01*
X1591574Y-590376D01*
X1591970Y-590296D01*
X1592576Y-590296D01*
X1594816Y-589368D01*
X1613360Y-570824D01*
X1614288Y-568584D01*
X1614288Y-515063D01*
X1614351Y-514712D01*
X1614563Y-514368D01*
X1614893Y-514134D01*
X1615288Y-514047D01*
X1615685Y-514122D01*
X1616022Y-514345D01*
X1619027Y-517349D01*
X1623292Y-519116D01*
X1627908Y-519116D01*
X1632173Y-517349D01*
X1635437Y-514085D01*
X1637204Y-509820D01*
X1637204Y-505204D01*
X1635437Y-500939D01*
X1632173Y-497675D01*
X1627908Y-495908D01*
X1623292Y-495908D01*
X1619027Y-497675D01*
X1616022Y-500679D01*
X1615730Y-500883D01*
X1615336Y-500976D01*
X1614938Y-500908D01*
X1614597Y-500690D01*
X1614368Y-500357D01*
X1614288Y-499961D01*
X1614288Y-409317D01*
X1613360Y-407076D01*
X1600702Y-394418D01*
X1600492Y-394111D01*
X1600405Y-393716D01*
X1600479Y-393319D01*
X1600702Y-392982D01*
X1613360Y-380324D01*
X1614288Y-378084D01*
X1614288Y-343827D01*
X1613360Y-341587D01*
X1610046Y-338273D01*
X1609829Y-337950D01*
X1609748Y-337554D01*
X1609748Y-230840D01*
X1608820Y-228599D01*
X1590636Y-210415D01*
X1590422Y-210100D01*
X1590338Y-209704D01*
X1590415Y-209307D01*
X1591564Y-206535D01*
X1591564Y-199865D01*
X1590697Y-197773D01*
X1590620Y-197408D01*
X1590691Y-197010D01*
X1590912Y-196671D01*
X1591247Y-196445D01*
X1598070Y-193619D01*
X1603319Y-188370D01*
X1606160Y-181512D01*
X1606160Y-174088D01*
X1603319Y-167230D01*
X1598070Y-161981D01*
X1591212Y-159140D01*
X1583788Y-159140D01*
X1576930Y-161981D01*
X1571681Y-167230D01*
X1569140Y-173365D01*
X1568851Y-173757D01*
X1568495Y-173949D01*
X1568092Y-173986D01*
X1567707Y-173864D01*
X1567400Y-173601D01*
X1567220Y-173239D01*
X1565271Y-165966D01*
X1561234Y-158974D01*
X1555526Y-153266D01*
X1548534Y-149229D01*
X1540736Y-147140D01*
X1532664Y-147140D01*
X1524866Y-149229D01*
X1517874Y-153266D01*
X1512166Y-158974D01*
X1508129Y-165966D01*
X1506180Y-173239D01*
X1505946Y-173666D01*
X1505618Y-173902D01*
X1505223Y-173992D01*
X1504825Y-173921D01*
X1504486Y-173700D01*
X1504260Y-173365D01*
X1501719Y-167230D01*
X1496470Y-161981D01*
X1489612Y-159140D01*
X1482188Y-159140D01*
X1475330Y-161981D01*
X1470081Y-167230D01*
X1468551Y-170924D01*
X1468364Y-171219D01*
X1468038Y-171458D01*
X1467644Y-171551D01*
X1467246Y-171483D01*
X1466905Y-171265D01*
X1466676Y-170932D01*
X1466596Y-170535D01*
X1466596Y-155346D01*
X1466670Y-154965D01*
X1466894Y-154627D01*
X1545855Y-75666D01*
X1546170Y-75452D01*
X1546566Y-75368D01*
X1546963Y-75446D01*
X1547019Y-75469D01*
X1551781Y-75469D01*
X1556180Y-73647D01*
X1559547Y-70280D01*
X1561369Y-65881D01*
X1561369Y-61119D01*
X1559547Y-56720D01*
X1556180Y-53353D01*
X1551781Y-51531D01*
X1547019Y-51531D01*
X1542620Y-53353D01*
X1539253Y-56720D01*
X1537431Y-61119D01*
X1537431Y-65881D01*
X1537454Y-65937D01*
X1537532Y-66310D01*
X1537458Y-66708D01*
X1537234Y-67045D01*
X1535047Y-69232D01*
X1534762Y-69433D01*
X1534369Y-69529D01*
X1533970Y-69464D01*
X1533628Y-69249D01*
X1533396Y-68917D01*
X1533313Y-68522D01*
X1533390Y-68125D01*
X1534445Y-65578D01*
X1534445Y-64262D01*
X1524762Y-64262D01*
X1524762Y-73945D01*
X1526078Y-73945D01*
X1528625Y-72890D01*
X1528965Y-72814D01*
X1529365Y-72875D01*
X1529709Y-73088D01*
X1529943Y-73418D01*
X1530029Y-73812D01*
X1529955Y-74210D01*
X1529732Y-74547D01*
X1455332Y-148947D01*
X1454404Y-151187D01*
X1454404Y-610813D01*
X1455332Y-613053D01*
X1507549Y-665270D01*
X1507753Y-665562D01*
X1507846Y-665956D01*
X1507778Y-666354D01*
X1507560Y-666695D01*
X1507226Y-666924D01*
X1506830Y-667004D01*
X976687Y-667004D01*
X974447Y-667932D01*
X916553Y-725826D01*
X916230Y-726044D01*
X915834Y-726124D01*
X862137Y-726124D01*
X861786Y-726061D01*
X861442Y-725849D01*
X861208Y-725519D01*
X861121Y-725124D01*
X861195Y-724727D01*
X861418Y-724390D01*
X865112Y-720696D01*
X867664Y-714535D01*
X867664Y-707865D01*
X865112Y-701704D01*
X860396Y-696988D01*
X854235Y-694436D01*
X847565Y-694436D01*
X841404Y-696988D01*
X836688Y-701704D01*
X834136Y-707865D01*
X834136Y-714535D01*
X836688Y-720696D01*
X840382Y-724390D01*
X840586Y-724682D01*
X840679Y-725076D01*
X840611Y-725474D01*
X840393Y-725815D01*
X840060Y-726044D01*
G37*
%LPC*%
G36*
X1513555Y-62738D02*
X1523238Y-62738D01*
X1523238Y-53055D01*
X1521922Y-53055D01*
X1518083Y-54645D01*
X1515145Y-57583D01*
X1513555Y-61422D01*
X1513555Y-62738D01*
G37*
G36*
X1524762Y-62738D02*
X1534445Y-62738D01*
X1534445Y-61422D01*
X1532855Y-57583D01*
X1529917Y-54645D01*
X1526078Y-53055D01*
X1524762Y-53055D01*
X1524762Y-62738D01*
G37*
G36*
X1521922Y-73945D02*
X1523238Y-73945D01*
X1523238Y-64262D01*
X1513555Y-64262D01*
X1513555Y-65578D01*
X1515145Y-69417D01*
X1518083Y-72355D01*
X1521922Y-73945D01*
G37*
G36*
X785092Y-100504D02*
X789708Y-100504D01*
X793973Y-98737D01*
X797237Y-95473D01*
X799004Y-91208D01*
X799004Y-86592D01*
X797237Y-82327D01*
X793973Y-79063D01*
X789708Y-77296D01*
X785092Y-77296D01*
X780827Y-79063D01*
X777563Y-82327D01*
X775796Y-86592D01*
X775796Y-91208D01*
X777563Y-95473D01*
X780827Y-98737D01*
X785092Y-100504D01*
G37*
G36*
X847565Y-156464D02*
X854235Y-156464D01*
X860396Y-153912D01*
X865112Y-149196D01*
X867664Y-143035D01*
X867664Y-136365D01*
X865112Y-130204D01*
X860396Y-125488D01*
X854235Y-122936D01*
X847565Y-122936D01*
X841404Y-125488D01*
X836688Y-130204D01*
X834136Y-136365D01*
X834136Y-143035D01*
X836688Y-149196D01*
X841404Y-153912D01*
X847565Y-156464D01*
G37*
G36*
X1432792Y-151304D02*
X1437408Y-151304D01*
X1441673Y-149537D01*
X1444937Y-146273D01*
X1446704Y-142008D01*
X1446704Y-137392D01*
X1444937Y-133127D01*
X1441673Y-129863D01*
X1437408Y-128096D01*
X1432792Y-128096D01*
X1428527Y-129863D01*
X1425263Y-133127D01*
X1423496Y-137392D01*
X1423496Y-142008D01*
X1425263Y-146273D01*
X1428527Y-149537D01*
X1432792Y-151304D01*
G37*
G36*
X1648692Y-164004D02*
X1653308Y-164004D01*
X1657573Y-162237D01*
X1660837Y-158973D01*
X1662604Y-154708D01*
X1662604Y-150092D01*
X1660837Y-145827D01*
X1657573Y-142563D01*
X1653308Y-140796D01*
X1648692Y-140796D01*
X1644427Y-142563D01*
X1641163Y-145827D01*
X1639396Y-150092D01*
X1639396Y-154708D01*
X1641163Y-158973D01*
X1644427Y-162237D01*
X1648692Y-164004D01*
G37*
G36*
X785092Y-202104D02*
X789708Y-202104D01*
X793973Y-200337D01*
X797237Y-197073D01*
X799004Y-192808D01*
X799004Y-188192D01*
X797237Y-183927D01*
X793973Y-180663D01*
X789708Y-178896D01*
X785092Y-178896D01*
X780827Y-180663D01*
X777563Y-183927D01*
X775796Y-188192D01*
X775796Y-192808D01*
X777563Y-197073D01*
X780827Y-200337D01*
X785092Y-202104D01*
G37*
G36*
X975592Y-291004D02*
X980208Y-291004D01*
X984473Y-289237D01*
X987737Y-285973D01*
X989504Y-281708D01*
X989504Y-277092D01*
X987737Y-272827D01*
X984473Y-269563D01*
X980208Y-267796D01*
X975592Y-267796D01*
X971327Y-269563D01*
X968063Y-272827D01*
X966296Y-277092D01*
X966296Y-281708D01*
X968063Y-285973D01*
X971327Y-289237D01*
X975592Y-291004D01*
G37*
G36*
X785092Y-291004D02*
X789708Y-291004D01*
X793973Y-289237D01*
X797237Y-285973D01*
X799004Y-281708D01*
X799004Y-277092D01*
X797237Y-272827D01*
X793973Y-269563D01*
X789708Y-267796D01*
X785092Y-267796D01*
X780827Y-269563D01*
X777563Y-272827D01*
X775796Y-277092D01*
X775796Y-281708D01*
X777563Y-285973D01*
X780827Y-289237D01*
X785092Y-291004D01*
G37*
G36*
X1626025Y-334441D02*
X1630641Y-334441D01*
X1634906Y-332675D01*
X1638171Y-329411D01*
X1639937Y-325146D01*
X1639937Y-320529D01*
X1638171Y-316264D01*
X1634906Y-313000D01*
X1630641Y-311233D01*
X1626025Y-311233D01*
X1621760Y-313000D01*
X1618496Y-316264D01*
X1616729Y-320529D01*
X1616729Y-325146D01*
X1618496Y-329411D01*
X1621760Y-332675D01*
X1626025Y-334441D01*
G37*
G36*
X847565Y-346964D02*
X854235Y-346964D01*
X860396Y-344412D01*
X865112Y-339696D01*
X867664Y-333535D01*
X867664Y-326865D01*
X865112Y-320704D01*
X860396Y-315988D01*
X854235Y-313436D01*
X847565Y-313436D01*
X841404Y-315988D01*
X836688Y-320704D01*
X834136Y-326865D01*
X834136Y-333535D01*
X836688Y-339696D01*
X841404Y-344412D01*
X847565Y-346964D01*
G37*
G36*
X1432792Y-341804D02*
X1437408Y-341804D01*
X1441673Y-340037D01*
X1444937Y-336773D01*
X1446704Y-332508D01*
X1446704Y-327892D01*
X1444937Y-323627D01*
X1441673Y-320363D01*
X1437408Y-318596D01*
X1432792Y-318596D01*
X1428527Y-320363D01*
X1425263Y-323627D01*
X1423496Y-327892D01*
X1423496Y-332508D01*
X1425263Y-336773D01*
X1428527Y-340037D01*
X1432792Y-341804D01*
G37*
G36*
X785092Y-392604D02*
X789708Y-392604D01*
X793973Y-390837D01*
X797237Y-387573D01*
X799004Y-383308D01*
X799004Y-378692D01*
X797237Y-374427D01*
X793973Y-371163D01*
X789708Y-369396D01*
X785092Y-369396D01*
X780827Y-371163D01*
X777563Y-374427D01*
X775796Y-378692D01*
X775796Y-383308D01*
X777563Y-387573D01*
X780827Y-390837D01*
X785092Y-392604D01*
G37*
G36*
X975592Y-392604D02*
X980208Y-392604D01*
X984473Y-390837D01*
X987737Y-387573D01*
X989504Y-383308D01*
X989504Y-378692D01*
X987737Y-374427D01*
X984473Y-371163D01*
X980208Y-369396D01*
X975592Y-369396D01*
X971327Y-371163D01*
X968063Y-374427D01*
X966296Y-378692D01*
X966296Y-383308D01*
X968063Y-387573D01*
X971327Y-390837D01*
X975592Y-392604D01*
G37*
G36*
X1317465Y-435864D02*
X1324135Y-435864D01*
X1330296Y-433312D01*
X1335012Y-428596D01*
X1337564Y-422435D01*
X1337564Y-415765D01*
X1335012Y-409604D01*
X1330296Y-404888D01*
X1324135Y-402336D01*
X1317465Y-402336D01*
X1311304Y-404888D01*
X1306588Y-409604D01*
X1304036Y-415765D01*
X1304036Y-422435D01*
X1306588Y-428596D01*
X1311304Y-433312D01*
X1317465Y-435864D01*
G37*
G36*
X1052539Y-477746D02*
X1055661Y-477746D01*
X1058544Y-476552D01*
X1058802Y-476294D01*
X1059124Y-476076D01*
X1059521Y-475996D01*
X1093413Y-475996D01*
X1095653Y-475068D01*
X1143477Y-427244D01*
X1143800Y-427026D01*
X1144196Y-426946D01*
X1144561Y-426946D01*
X1147444Y-425752D01*
X1149652Y-423544D01*
X1150846Y-420661D01*
X1150846Y-417539D01*
X1149652Y-414656D01*
X1147444Y-412449D01*
X1144561Y-411254D01*
X1141439Y-411254D01*
X1138556Y-412449D01*
X1136349Y-414656D01*
X1135154Y-417539D01*
X1135154Y-417904D01*
X1135080Y-418285D01*
X1134856Y-418623D01*
X1089973Y-463506D01*
X1089650Y-463724D01*
X1089254Y-463804D01*
X1059521Y-463804D01*
X1059139Y-463730D01*
X1058802Y-463506D01*
X1058544Y-463249D01*
X1055661Y-462054D01*
X1052539Y-462054D01*
X1049656Y-463249D01*
X1047449Y-465456D01*
X1046254Y-468339D01*
X1046254Y-471461D01*
X1047449Y-474344D01*
X1049656Y-476552D01*
X1052539Y-477746D01*
G37*
G36*
X976392Y-481504D02*
X981008Y-481504D01*
X985273Y-479737D01*
X988537Y-476473D01*
X990304Y-472208D01*
X990304Y-467592D01*
X988537Y-463327D01*
X985273Y-460063D01*
X981008Y-458296D01*
X976392Y-458296D01*
X972127Y-460063D01*
X968863Y-463327D01*
X967096Y-467592D01*
X967096Y-472208D01*
X968863Y-476473D01*
X972127Y-479737D01*
X976392Y-481504D01*
G37*
G36*
X781456Y-481504D02*
X786072Y-481504D01*
X790337Y-479737D01*
X793601Y-476473D01*
X795368Y-472208D01*
X795368Y-467592D01*
X793601Y-463327D01*
X790337Y-460063D01*
X786072Y-458296D01*
X781456Y-458296D01*
X777191Y-460063D01*
X773927Y-463327D01*
X772160Y-467592D01*
X772160Y-472208D01*
X773927Y-476473D01*
X777191Y-479737D01*
X781456Y-481504D01*
G37*
G36*
X847565Y-537464D02*
X854235Y-537464D01*
X860396Y-534912D01*
X865112Y-530196D01*
X867664Y-524035D01*
X867664Y-517365D01*
X865112Y-511204D01*
X860396Y-506488D01*
X854235Y-503936D01*
X847565Y-503936D01*
X841404Y-506488D01*
X836688Y-511204D01*
X834136Y-517365D01*
X834136Y-524035D01*
X836688Y-530196D01*
X841404Y-534912D01*
X847565Y-537464D01*
G37*
G36*
X1053687Y-653796D02*
X1398213Y-653796D01*
X1400453Y-652868D01*
X1431835Y-621486D01*
X1432149Y-621272D01*
X1432545Y-621189D01*
X1432623Y-621204D01*
X1437408Y-621204D01*
X1441673Y-619437D01*
X1444937Y-616173D01*
X1446704Y-611908D01*
X1446704Y-607292D01*
X1444937Y-603027D01*
X1441673Y-599763D01*
X1437408Y-597996D01*
X1432792Y-597996D01*
X1428527Y-599763D01*
X1425263Y-603027D01*
X1423496Y-607292D01*
X1423496Y-612058D01*
X1423511Y-612131D01*
X1423437Y-612528D01*
X1423214Y-612865D01*
X1394773Y-641306D01*
X1394450Y-641524D01*
X1394054Y-641604D01*
X1057846Y-641604D01*
X1057465Y-641530D01*
X1057127Y-641306D01*
X990586Y-574765D01*
X990372Y-574451D01*
X990289Y-574055D01*
X990304Y-573977D01*
X990304Y-569192D01*
X988537Y-564927D01*
X985273Y-561663D01*
X981008Y-559896D01*
X976392Y-559896D01*
X972127Y-561663D01*
X968863Y-564927D01*
X967096Y-569192D01*
X967096Y-573808D01*
X968863Y-578073D01*
X972127Y-581337D01*
X976392Y-583104D01*
X981158Y-583104D01*
X981231Y-583089D01*
X981628Y-583163D01*
X981965Y-583386D01*
X1051447Y-652868D01*
X1053687Y-653796D01*
G37*
G36*
X781456Y-583104D02*
X786072Y-583104D01*
X790337Y-581337D01*
X793601Y-578073D01*
X795368Y-573808D01*
X795368Y-569192D01*
X793601Y-564927D01*
X790337Y-561663D01*
X786072Y-559896D01*
X781456Y-559896D01*
X777191Y-561663D01*
X773927Y-564927D01*
X772160Y-569192D01*
X772160Y-573808D01*
X773927Y-578073D01*
X777191Y-581337D01*
X781456Y-583104D01*
G37*
G36*
X1317465Y-626364D02*
X1324135Y-626364D01*
X1330296Y-623812D01*
X1335012Y-619096D01*
X1337564Y-612935D01*
X1337564Y-606265D01*
X1335012Y-600104D01*
X1330296Y-595388D01*
X1324135Y-592836D01*
X1317465Y-592836D01*
X1311304Y-595388D01*
X1306588Y-600104D01*
X1304036Y-606265D01*
X1304036Y-612935D01*
X1306588Y-619096D01*
X1311304Y-623812D01*
X1317465Y-626364D01*
G37*
G36*
X975592Y-621204D02*
X980208Y-621204D01*
X984473Y-619437D01*
X987737Y-616173D01*
X989504Y-611908D01*
X989504Y-607292D01*
X987737Y-603027D01*
X984473Y-599763D01*
X980208Y-597996D01*
X975592Y-597996D01*
X971327Y-599763D01*
X968063Y-603027D01*
X966296Y-607292D01*
X966296Y-611908D01*
X968063Y-616173D01*
X971327Y-619437D01*
X975592Y-621204D01*
G37*
G36*
X785092Y-621204D02*
X789708Y-621204D01*
X793973Y-619437D01*
X797237Y-616173D01*
X799004Y-611908D01*
X799004Y-607292D01*
X797237Y-603027D01*
X793973Y-599763D01*
X789708Y-597996D01*
X785092Y-597996D01*
X780827Y-599763D01*
X777563Y-603027D01*
X775796Y-607292D01*
X775796Y-611908D01*
X777563Y-616173D01*
X780827Y-619437D01*
X785092Y-621204D01*
G37*
%LPD*%
G36*
X1764949Y-327013D02*
X1764554Y-327100D01*
X1764157Y-327026D01*
X1763820Y-326802D01*
X1747163Y-310145D01*
X1746949Y-309831D01*
X1746865Y-309435D01*
X1746942Y-309038D01*
X1747316Y-308136D01*
X1747316Y-302780D01*
X1745267Y-297832D01*
X1741480Y-294046D01*
X1740638Y-293697D01*
X1740337Y-293504D01*
X1740101Y-293177D01*
X1740011Y-292782D01*
X1740082Y-292384D01*
X1740302Y-292045D01*
X1740638Y-291819D01*
X1741480Y-291471D01*
X1745267Y-287684D01*
X1747316Y-282736D01*
X1747316Y-277380D01*
X1745267Y-272432D01*
X1741480Y-268646D01*
X1740638Y-268297D01*
X1740337Y-268104D01*
X1740101Y-267777D01*
X1740011Y-267382D01*
X1740082Y-266984D01*
X1740302Y-266645D01*
X1740638Y-266419D01*
X1741480Y-266071D01*
X1745267Y-262284D01*
X1747316Y-257336D01*
X1747316Y-251980D01*
X1745267Y-247032D01*
X1741480Y-243246D01*
X1740638Y-242897D01*
X1740337Y-242704D01*
X1740101Y-242377D01*
X1740011Y-241982D01*
X1740082Y-241584D01*
X1740302Y-241245D01*
X1740638Y-241019D01*
X1741480Y-240671D01*
X1745267Y-236884D01*
X1747316Y-231936D01*
X1747316Y-226580D01*
X1745267Y-221632D01*
X1741480Y-217846D01*
X1740638Y-217497D01*
X1740337Y-217304D01*
X1740101Y-216977D01*
X1740011Y-216582D01*
X1740082Y-216184D01*
X1740302Y-215845D01*
X1740638Y-215619D01*
X1741480Y-215271D01*
X1745267Y-211484D01*
X1747316Y-206536D01*
X1747316Y-201180D01*
X1745267Y-196232D01*
X1741480Y-192446D01*
X1738646Y-191272D01*
X1738346Y-191080D01*
X1738109Y-190752D01*
X1738019Y-190358D01*
X1738090Y-189959D01*
X1738311Y-189621D01*
X1738646Y-189395D01*
X1740616Y-188579D01*
X1743975Y-185220D01*
X1745792Y-180833D01*
X1745792Y-179220D01*
X1733092Y-179220D01*
X1733092Y-177696D01*
X1745792Y-177696D01*
X1745792Y-176083D01*
X1743975Y-171696D01*
X1740616Y-168337D01*
X1738646Y-167521D01*
X1738346Y-167329D01*
X1738109Y-167001D01*
X1738019Y-166607D01*
X1738090Y-166209D01*
X1738311Y-165870D01*
X1738646Y-165644D01*
X1741480Y-164471D01*
X1745267Y-160684D01*
X1747316Y-155736D01*
X1747316Y-152194D01*
X1747379Y-151843D01*
X1747591Y-151499D01*
X1747921Y-151265D01*
X1748316Y-151178D01*
X1748713Y-151252D01*
X1749050Y-151475D01*
X1772145Y-174570D01*
X1772349Y-174862D01*
X1772442Y-175256D01*
X1772374Y-175654D01*
X1772156Y-175995D01*
X1771822Y-176224D01*
X1771426Y-176304D01*
X1770089Y-176304D01*
X1767206Y-177499D01*
X1764999Y-179706D01*
X1763804Y-182589D01*
X1763804Y-185711D01*
X1764999Y-188594D01*
X1765256Y-188852D01*
X1765474Y-189174D01*
X1765554Y-189571D01*
X1765554Y-326084D01*
X1765491Y-326435D01*
X1765279Y-326779D01*
X1764949Y-327013D01*
G37*
G36*
X1737350Y-638476D02*
X1736954Y-638556D01*
X1638198Y-638556D01*
X1637817Y-638482D01*
X1637479Y-638258D01*
X1621177Y-621955D01*
X1620976Y-621670D01*
X1620880Y-621278D01*
X1620944Y-620878D01*
X1621160Y-620536D01*
X1621491Y-620305D01*
X1621887Y-620221D01*
X1622284Y-620298D01*
X1623292Y-620716D01*
X1627908Y-620716D01*
X1632173Y-618949D01*
X1635437Y-615685D01*
X1637204Y-611420D01*
X1637204Y-606654D01*
X1637189Y-606581D01*
X1637263Y-606184D01*
X1637486Y-605847D01*
X1654154Y-589179D01*
X1655082Y-586939D01*
X1655082Y-307256D01*
X1655145Y-306905D01*
X1655357Y-306561D01*
X1655687Y-306327D01*
X1656082Y-306240D01*
X1656479Y-306314D01*
X1656816Y-306537D01*
X1667273Y-316994D01*
X1667490Y-317316D01*
X1667571Y-317713D01*
X1667571Y-403049D01*
X1667500Y-403422D01*
X1667279Y-403761D01*
X1667213Y-403806D01*
X1663829Y-407189D01*
X1662063Y-411454D01*
X1662063Y-416071D01*
X1663829Y-420336D01*
X1667094Y-423600D01*
X1671359Y-425367D01*
X1675975Y-425367D01*
X1680240Y-423600D01*
X1683504Y-420336D01*
X1685271Y-416071D01*
X1685271Y-411454D01*
X1683504Y-407189D01*
X1680134Y-403819D01*
X1680072Y-403779D01*
X1679843Y-403445D01*
X1679763Y-403049D01*
X1679763Y-313554D01*
X1678835Y-311314D01*
X1631994Y-264473D01*
X1631776Y-264150D01*
X1631696Y-263754D01*
X1631696Y-244246D01*
X1631770Y-243865D01*
X1631994Y-243527D01*
X1640527Y-234994D01*
X1640850Y-234776D01*
X1641246Y-234696D01*
X1660754Y-234696D01*
X1661135Y-234770D01*
X1661473Y-234994D01*
X1670006Y-243527D01*
X1670224Y-243850D01*
X1670304Y-244246D01*
X1670304Y-255213D01*
X1671232Y-257453D01*
X1694694Y-280916D01*
X1694912Y-281238D01*
X1694992Y-281634D01*
X1694992Y-282736D01*
X1697042Y-287684D01*
X1700828Y-291471D01*
X1701671Y-291819D01*
X1701971Y-292012D01*
X1702208Y-292339D01*
X1702297Y-292734D01*
X1702227Y-293132D01*
X1702006Y-293471D01*
X1701671Y-293697D01*
X1700669Y-294111D01*
X1700659Y-294119D01*
X1700644Y-294122D01*
X1700642Y-294123D01*
X1700642Y-294122D01*
X1700264Y-294206D01*
X1699866Y-294131D01*
X1699529Y-293908D01*
X1662886Y-257265D01*
X1662672Y-256951D01*
X1662589Y-256555D01*
X1662604Y-256477D01*
X1662604Y-251692D01*
X1660837Y-247427D01*
X1657573Y-244163D01*
X1653308Y-242396D01*
X1648692Y-242396D01*
X1644427Y-244163D01*
X1641163Y-247427D01*
X1639396Y-251692D01*
X1639396Y-256308D01*
X1641163Y-260573D01*
X1644427Y-263837D01*
X1648692Y-265604D01*
X1653458Y-265604D01*
X1653531Y-265589D01*
X1653928Y-265663D01*
X1654265Y-265886D01*
X1694694Y-306316D01*
X1694912Y-306638D01*
X1694992Y-307034D01*
X1694992Y-308136D01*
X1697042Y-313084D01*
X1700828Y-316871D01*
X1703662Y-318044D01*
X1703962Y-318236D01*
X1704199Y-318564D01*
X1704289Y-318959D01*
X1704218Y-319357D01*
X1703997Y-319695D01*
X1703662Y-319921D01*
X1701692Y-320737D01*
X1698334Y-324096D01*
X1696516Y-328483D01*
X1696516Y-330096D01*
X1709216Y-330096D01*
X1709216Y-331620D01*
X1696516Y-331620D01*
X1696516Y-333233D01*
X1698334Y-337620D01*
X1701692Y-340979D01*
X1703662Y-341795D01*
X1703962Y-341987D01*
X1704199Y-342315D01*
X1704289Y-342709D01*
X1704218Y-343107D01*
X1703997Y-343446D01*
X1703662Y-343672D01*
X1700828Y-344846D01*
X1697042Y-348632D01*
X1694992Y-353580D01*
X1694992Y-358936D01*
X1697042Y-363884D01*
X1700828Y-367671D01*
X1701671Y-368019D01*
X1701971Y-368212D01*
X1702208Y-368539D01*
X1702297Y-368934D01*
X1702227Y-369332D01*
X1702006Y-369671D01*
X1701671Y-369897D01*
X1700828Y-370246D01*
X1697042Y-374032D01*
X1694992Y-378980D01*
X1694992Y-384336D01*
X1697042Y-389284D01*
X1700828Y-393071D01*
X1701671Y-393419D01*
X1701971Y-393612D01*
X1702208Y-393939D01*
X1702297Y-394334D01*
X1702227Y-394732D01*
X1702006Y-395071D01*
X1701671Y-395297D01*
X1700828Y-395646D01*
X1697042Y-399432D01*
X1694992Y-404380D01*
X1694992Y-409736D01*
X1697042Y-414684D01*
X1700828Y-418471D01*
X1703662Y-419644D01*
X1703962Y-419836D01*
X1704199Y-420164D01*
X1704289Y-420559D01*
X1704218Y-420957D01*
X1703997Y-421295D01*
X1703662Y-421521D01*
X1701692Y-422337D01*
X1698334Y-425696D01*
X1696516Y-430083D01*
X1696516Y-431696D01*
X1709216Y-431696D01*
X1709216Y-433220D01*
X1696516Y-433220D01*
X1696516Y-434833D01*
X1698334Y-439220D01*
X1701692Y-442579D01*
X1703662Y-443395D01*
X1703962Y-443587D01*
X1704199Y-443915D01*
X1704289Y-444309D01*
X1704218Y-444707D01*
X1703997Y-445046D01*
X1703662Y-445272D01*
X1700828Y-446446D01*
X1697042Y-450232D01*
X1694992Y-455180D01*
X1694992Y-460536D01*
X1697042Y-465484D01*
X1700828Y-469271D01*
X1701671Y-469619D01*
X1701971Y-469812D01*
X1702208Y-470139D01*
X1702297Y-470534D01*
X1702227Y-470932D01*
X1702006Y-471271D01*
X1701671Y-471497D01*
X1700828Y-471846D01*
X1697042Y-475632D01*
X1694992Y-480580D01*
X1694992Y-485936D01*
X1697042Y-490884D01*
X1700828Y-494671D01*
X1705776Y-496720D01*
X1711132Y-496720D01*
X1716080Y-494671D01*
X1719867Y-490884D01*
X1720215Y-490042D01*
X1720408Y-489741D01*
X1720736Y-489505D01*
X1721130Y-489415D01*
X1721528Y-489486D01*
X1721867Y-489706D01*
X1722093Y-490042D01*
X1722442Y-490884D01*
X1726228Y-494671D01*
X1731176Y-496720D01*
X1736532Y-496720D01*
X1741480Y-494671D01*
X1745267Y-490884D01*
X1747316Y-485936D01*
X1747316Y-480580D01*
X1745267Y-475632D01*
X1741480Y-471846D01*
X1740638Y-471497D01*
X1740337Y-471304D01*
X1740101Y-470977D01*
X1740011Y-470582D01*
X1740082Y-470184D01*
X1740302Y-469845D01*
X1740638Y-469619D01*
X1741480Y-469271D01*
X1745267Y-465484D01*
X1747316Y-460536D01*
X1747316Y-455180D01*
X1745267Y-450232D01*
X1741480Y-446446D01*
X1740638Y-446097D01*
X1740337Y-445904D01*
X1740101Y-445577D01*
X1740011Y-445182D01*
X1740082Y-444784D01*
X1740302Y-444445D01*
X1740638Y-444219D01*
X1741480Y-443871D01*
X1741696Y-443654D01*
X1742003Y-443443D01*
X1742398Y-443357D01*
X1742796Y-443431D01*
X1743133Y-443654D01*
X1752556Y-453077D01*
X1752774Y-453400D01*
X1752854Y-453796D01*
X1752854Y-486004D01*
X1752780Y-486385D01*
X1752556Y-486723D01*
X1737673Y-501606D01*
X1737350Y-501824D01*
X1736954Y-501904D01*
X1681537Y-501904D01*
X1679297Y-502832D01*
X1664882Y-517247D01*
X1663954Y-519487D01*
X1663954Y-553663D01*
X1664882Y-555903D01*
X1676356Y-567377D01*
X1676574Y-567700D01*
X1676654Y-568096D01*
X1676654Y-610813D01*
X1677582Y-613053D01*
X1691997Y-627468D01*
X1694237Y-628396D01*
X1722063Y-628396D01*
X1724303Y-627468D01*
X1745426Y-606345D01*
X1745718Y-606141D01*
X1746112Y-606048D01*
X1746510Y-606116D01*
X1746851Y-606334D01*
X1747080Y-606667D01*
X1747160Y-607064D01*
X1747160Y-608701D01*
X1749210Y-613649D01*
X1752997Y-617436D01*
X1755480Y-618464D01*
X1755786Y-618662D01*
X1756020Y-618992D01*
X1756107Y-619387D01*
X1756033Y-619784D01*
X1755810Y-620121D01*
X1737673Y-638258D01*
X1737350Y-638476D01*
G37*
G36*
X1700642Y-268722D02*
X1700264Y-268806D01*
X1699866Y-268731D01*
X1699529Y-268508D01*
X1682794Y-251773D01*
X1682576Y-251450D01*
X1682496Y-251054D01*
X1682496Y-240087D01*
X1681568Y-237847D01*
X1680809Y-237088D01*
X1680605Y-236796D01*
X1680512Y-236402D01*
X1680580Y-236004D01*
X1680798Y-235663D01*
X1681132Y-235434D01*
X1681528Y-235354D01*
X1695729Y-235354D01*
X1696103Y-235425D01*
X1696442Y-235646D01*
X1696668Y-235981D01*
X1697042Y-236884D01*
X1700828Y-240671D01*
X1703662Y-241844D01*
X1703962Y-242036D01*
X1704199Y-242364D01*
X1704289Y-242759D01*
X1704218Y-243157D01*
X1703997Y-243495D01*
X1703662Y-243721D01*
X1701692Y-244537D01*
X1698334Y-247896D01*
X1696516Y-252283D01*
X1696516Y-253896D01*
X1709216Y-253896D01*
X1709216Y-255420D01*
X1696516Y-255420D01*
X1696516Y-257033D01*
X1698334Y-261420D01*
X1701692Y-264779D01*
X1703662Y-265595D01*
X1703962Y-265787D01*
X1704199Y-266115D01*
X1704289Y-266509D01*
X1704218Y-266907D01*
X1703997Y-267246D01*
X1703662Y-267472D01*
X1700669Y-268711D01*
X1700659Y-268719D01*
X1700644Y-268722D01*
X1700642Y-268723D01*
X1700642Y-268722D01*
G37*
G36*
X1766488Y-485403D02*
X1766094Y-485496D01*
X1765696Y-485428D01*
X1765355Y-485210D01*
X1765126Y-484876D01*
X1765046Y-484480D01*
X1765046Y-449637D01*
X1764118Y-447397D01*
X1747614Y-430893D01*
X1747397Y-430570D01*
X1747316Y-430174D01*
X1747316Y-429780D01*
X1745267Y-424832D01*
X1741480Y-421046D01*
X1740638Y-420697D01*
X1740337Y-420504D01*
X1740101Y-420177D01*
X1740011Y-419782D01*
X1740082Y-419384D01*
X1740302Y-419045D01*
X1740638Y-418819D01*
X1741480Y-418471D01*
X1745267Y-414684D01*
X1747316Y-409736D01*
X1747316Y-404380D01*
X1745267Y-399432D01*
X1741480Y-395646D01*
X1738646Y-394472D01*
X1738346Y-394280D01*
X1738109Y-393952D01*
X1738019Y-393558D01*
X1738090Y-393159D01*
X1738311Y-392821D01*
X1738646Y-392595D01*
X1740616Y-391779D01*
X1743975Y-388420D01*
X1745792Y-384033D01*
X1745792Y-382420D01*
X1733092Y-382420D01*
X1733092Y-380896D01*
X1745792Y-380896D01*
X1745792Y-379283D01*
X1743975Y-374896D01*
X1740616Y-371537D01*
X1738646Y-370721D01*
X1738346Y-370529D01*
X1738109Y-370201D01*
X1738019Y-369807D01*
X1738090Y-369409D01*
X1738311Y-369070D01*
X1738646Y-368844D01*
X1741480Y-367671D01*
X1745267Y-363884D01*
X1745941Y-362256D01*
X1746138Y-361950D01*
X1746468Y-361716D01*
X1746863Y-361629D01*
X1747261Y-361703D01*
X1747598Y-361927D01*
X1773502Y-387831D01*
X1773720Y-388153D01*
X1773800Y-388550D01*
X1773800Y-477758D01*
X1773726Y-478139D01*
X1773502Y-478477D01*
X1766780Y-485199D01*
X1766488Y-485403D01*
G37*
G36*
X1706889Y-616124D02*
X1706493Y-616204D01*
X1698396Y-616204D01*
X1698015Y-616130D01*
X1697677Y-615906D01*
X1689144Y-607373D01*
X1688926Y-607050D01*
X1688846Y-606654D01*
X1688846Y-563937D01*
X1687918Y-561697D01*
X1676444Y-550223D01*
X1676226Y-549900D01*
X1676146Y-549504D01*
X1676146Y-541238D01*
X1676206Y-540894D01*
X1676416Y-540548D01*
X1676743Y-540312D01*
X1677138Y-540222D01*
X1677536Y-540293D01*
X1677875Y-540514D01*
X1678101Y-540849D01*
X1679593Y-544452D01*
X1682748Y-547607D01*
X1686869Y-549314D01*
X1691331Y-549314D01*
X1695452Y-547607D01*
X1698565Y-544494D01*
X1698888Y-544276D01*
X1699284Y-544196D01*
X1708305Y-544196D01*
X1710545Y-543268D01*
X1711480Y-542334D01*
X1711802Y-542116D01*
X1712198Y-542036D01*
X1725873Y-542036D01*
X1728113Y-541108D01*
X1785064Y-484157D01*
X1785992Y-481917D01*
X1785992Y-391655D01*
X1786055Y-391304D01*
X1786267Y-390960D01*
X1786597Y-390726D01*
X1786992Y-390639D01*
X1787389Y-390713D01*
X1787726Y-390937D01*
X1811602Y-414813D01*
X1811820Y-415135D01*
X1811900Y-415531D01*
X1811900Y-438976D01*
X1811835Y-439335D01*
X1811619Y-439677D01*
X1811288Y-439909D01*
X1810892Y-439992D01*
X1810495Y-439915D01*
X1807427Y-438644D01*
X1802966Y-438644D01*
X1798844Y-440351D01*
X1795690Y-443506D01*
X1793982Y-447627D01*
X1793982Y-452089D01*
X1795690Y-456210D01*
X1798803Y-459323D01*
X1799020Y-459646D01*
X1799100Y-460042D01*
X1799100Y-528658D01*
X1799026Y-529039D01*
X1798803Y-529376D01*
X1775773Y-552406D01*
X1775450Y-552624D01*
X1775054Y-552704D01*
X1752824Y-552704D01*
X1752458Y-552636D01*
X1752117Y-552418D01*
X1751889Y-552084D01*
X1751808Y-551688D01*
X1751808Y-549844D01*
X1749986Y-545445D01*
X1746619Y-542078D01*
X1742220Y-540256D01*
X1737458Y-540256D01*
X1733059Y-542078D01*
X1729692Y-545445D01*
X1727870Y-549844D01*
X1727870Y-554605D01*
X1729692Y-559005D01*
X1733059Y-562371D01*
X1737458Y-564194D01*
X1742220Y-564194D01*
X1742474Y-564088D01*
X1742855Y-564011D01*
X1743252Y-564088D01*
X1745202Y-564896D01*
X1767180Y-564896D01*
X1767531Y-564959D01*
X1767875Y-565171D01*
X1768109Y-565501D01*
X1768196Y-565896D01*
X1768122Y-566293D01*
X1767899Y-566630D01*
X1750684Y-583845D01*
X1750399Y-584046D01*
X1750006Y-584142D01*
X1749607Y-584077D01*
X1749265Y-583862D01*
X1749033Y-583530D01*
X1748950Y-583135D01*
X1749027Y-582738D01*
X1750284Y-579702D01*
X1750284Y-578387D01*
X1740601Y-578387D01*
X1740601Y-588070D01*
X1741917Y-588070D01*
X1744952Y-586812D01*
X1745293Y-586736D01*
X1745692Y-586798D01*
X1746036Y-587010D01*
X1746270Y-587340D01*
X1746357Y-587735D01*
X1746283Y-588132D01*
X1746060Y-588469D01*
X1729083Y-605446D01*
X1728791Y-605650D01*
X1728397Y-605743D01*
X1727999Y-605675D01*
X1727658Y-605457D01*
X1727429Y-605124D01*
X1727349Y-604727D01*
X1727349Y-603412D01*
X1725531Y-599024D01*
X1722173Y-595666D01*
X1717785Y-593848D01*
X1716235Y-593848D01*
X1716169Y-606552D01*
X1703473Y-606486D01*
X1703473Y-608161D01*
X1705290Y-612549D01*
X1707211Y-614470D01*
X1707415Y-614762D01*
X1707508Y-615156D01*
X1707440Y-615554D01*
X1707223Y-615895D01*
X1706889Y-616124D01*
G37*
%LPC*%
G36*
X1729394Y-576863D02*
X1739077Y-576863D01*
X1739077Y-567180D01*
X1737762Y-567180D01*
X1733923Y-568770D01*
X1730984Y-571708D01*
X1729394Y-575547D01*
X1729394Y-576863D01*
G37*
G36*
X1740601Y-576863D02*
X1750284Y-576863D01*
X1750284Y-575547D01*
X1748694Y-571708D01*
X1745756Y-568770D01*
X1741917Y-567180D01*
X1740601Y-567180D01*
X1740601Y-576863D01*
G37*
G36*
X1737762Y-588070D02*
X1739077Y-588070D01*
X1739077Y-578387D01*
X1729394Y-578387D01*
X1729394Y-579702D01*
X1730984Y-583541D01*
X1733923Y-586479D01*
X1737762Y-588070D01*
G37*
G36*
X1703473Y-604962D02*
X1714653Y-605020D01*
X1714711Y-593848D01*
X1713036Y-593848D01*
X1708648Y-595666D01*
X1705290Y-599024D01*
X1703473Y-603412D01*
X1703473Y-604962D01*
G37*
%LPD*%
D10*
X279400Y-88900D03*
X304800Y-88900D03*
X279400Y-279400D03*
X304800Y-279400D03*
X279400Y-469900D03*
X304800Y-469900D03*
X279400Y-660400D03*
X304800Y-660400D03*
X1549400Y-63500D03*
X1524000Y-63500D03*
D11*
X431241Y36788D02*
X431241Y52028D01*
X456641Y52028D02*
X456641Y36788D01*
X482041Y36788D02*
X482041Y52028D01*
X507441Y52028D02*
X507441Y36788D01*
X532841Y36788D02*
X532841Y52028D01*
X558241Y52028D02*
X558241Y36788D01*
X583641Y36788D02*
X583641Y52028D01*
X609041Y52028D02*
X609041Y36788D01*
D12*
X1733854Y-483258D03*
X1708454Y-483258D03*
X1733854Y-457858D03*
X1708454Y-457858D03*
X1733854Y-432458D03*
X1708454Y-432458D03*
X1733854Y-407058D03*
X1708454Y-407058D03*
X1733854Y-381658D03*
X1708454Y-381658D03*
X1733854Y-356258D03*
X1708454Y-356258D03*
X1733854Y-330858D03*
X1708454Y-330858D03*
X1733854Y-305458D03*
X1708454Y-305458D03*
X1733854Y-280058D03*
X1708454Y-280058D03*
X1733854Y-254658D03*
X1708454Y-254658D03*
X1733854Y-229258D03*
X1708454Y-229258D03*
X1733854Y-203858D03*
X1708454Y-203858D03*
X1733854Y-178458D03*
X1708454Y-178458D03*
X1733854Y-153058D03*
X1708454Y-153058D03*
X1733854Y-127658D03*
X1708454Y-127658D03*
X1733854Y-102258D03*
X1708454Y-102258D03*
X1733854Y-76858D03*
X1708454Y-76858D03*
X1733854Y-51458D03*
X1708454Y-51458D03*
X1733854Y-26058D03*
X1708454Y-26058D03*
X1733854Y-658D03*
X1708454Y-658D03*
D11*
X1220077Y52399D02*
X1220077Y67639D01*
X1245477Y67639D02*
X1245477Y52399D01*
X1270877Y52399D02*
X1270877Y67639D01*
X1296277Y67639D02*
X1296277Y52399D01*
X1321677Y52399D02*
X1321677Y67639D01*
X1670980Y88652D02*
X1670980Y103892D01*
X1696380Y103892D02*
X1696380Y88652D01*
X1721780Y88652D02*
X1721780Y103892D01*
X1747180Y103892D02*
X1747180Y88652D01*
X1772580Y88652D02*
X1772580Y103892D01*
D10*
X1739839Y-552225D03*
X1739839Y-577625D03*
D13*
X1805196Y-567458D03*
X1805196Y-449858D03*
D14*
X1056118Y-43100D03*
X1056118Y-68500D03*
X1056118Y-93900D03*
X1056118Y-119300D03*
X1056118Y-144700D03*
X1056118Y-170100D03*
X1056118Y-195500D03*
X1056118Y-220900D03*
X1056118Y-246300D03*
X1056118Y-271700D03*
X1056118Y-297100D03*
X1056118Y-322500D03*
X1208518Y-322500D03*
X1208518Y-297100D03*
X1208518Y-271700D03*
X1208518Y-246300D03*
X1208518Y-220900D03*
X1208518Y-195500D03*
X1208518Y-170100D03*
X1208518Y-144700D03*
X1208518Y-119300D03*
X1208518Y-93900D03*
X1208518Y-68500D03*
X1208518Y-43100D03*
D13*
X401700Y-609600D03*
X284100Y-609600D03*
X1689100Y-538100D03*
X1689100Y-655700D03*
X401700Y-419100D03*
X284100Y-419100D03*
X401700Y-228600D03*
X284100Y-228600D03*
X401700Y-38100D03*
X284100Y-38100D03*
D15*
X127000Y-63500D03*
X190500Y-38100D03*
X533400Y-114300D03*
X469900Y-139700D03*
X723900Y-114300D03*
X660400Y-139700D03*
X914400Y-114300D03*
X850900Y-139700D03*
X1384300Y-203200D03*
X1320800Y-228600D03*
X1574800Y-203200D03*
X1511300Y-228600D03*
X127000Y-254000D03*
X190500Y-228600D03*
X533400Y-304800D03*
X469900Y-330200D03*
X723900Y-304800D03*
X660400Y-330200D03*
X914400Y-304800D03*
X850900Y-330200D03*
X1384300Y-393700D03*
X1320800Y-419100D03*
X1574800Y-393700D03*
X1511300Y-419100D03*
X1574800Y-584200D03*
X1511300Y-609600D03*
X1384300Y-584200D03*
X1320800Y-609600D03*
X914400Y-495300D03*
X850900Y-520700D03*
X723900Y-495300D03*
X660400Y-520700D03*
X533400Y-495300D03*
X469900Y-520700D03*
X127000Y-444500D03*
X190500Y-419100D03*
X124460Y-635000D03*
X187960Y-609600D03*
X533400Y-685800D03*
X469900Y-711200D03*
X723900Y-685800D03*
X660400Y-711200D03*
X914400Y-685800D03*
X850900Y-711200D03*
D14*
X71200Y-88900D03*
X71200Y-190500D03*
X596900Y-76200D03*
X596900Y-177800D03*
X787400Y-88900D03*
X787400Y-190500D03*
X71200Y-266700D03*
X71200Y-368300D03*
X596900Y-279400D03*
X596900Y-381000D03*
X787400Y-279400D03*
X787400Y-381000D03*
X965200Y-88900D03*
X965200Y-190500D03*
X977900Y-279400D03*
X977900Y-381000D03*
X1435100Y-139700D03*
X1435100Y-241300D03*
X1435100Y-330200D03*
X1435100Y-431800D03*
X1651000Y-152400D03*
X1651000Y-254000D03*
X1628333Y-322837D03*
X1673667Y-413763D03*
X1625600Y-507512D03*
X1625600Y-609112D03*
X1435100Y-508000D03*
X1435100Y-609600D03*
X978700Y-469900D03*
X978700Y-571500D03*
X783764Y-469900D03*
X783764Y-571500D03*
X603079Y-470700D03*
X603079Y-572300D03*
X68500Y-457200D03*
X68500Y-558800D03*
X249000Y-732300D03*
X350600Y-732300D03*
X596900Y-605300D03*
X596900Y-706900D03*
X787400Y-609600D03*
X787400Y-711200D03*
X977900Y-609600D03*
X977900Y-711200D03*
D12*
X1760622Y-606023D03*
X1760282Y-671046D03*
X1715411Y-605786D03*
X1715070Y-670809D03*
D16*
X1655471Y-13208D02*
X1283208Y-13208D01*
X1655471Y-13208D02*
X1670980Y2301D01*
X431241Y-24841D02*
X431241Y44408D01*
X431241Y-24841D02*
X456004Y-49604D01*
X892577Y-49604D01*
X1002058Y-52042D02*
X1028700Y-25400D01*
X1002058Y-52042D02*
X895015Y-52042D01*
X892577Y-49604D01*
D17*
X1670050Y12700D03*
D16*
X1670980Y11770D01*
X1670980Y2301D01*
X1283208Y-13208D02*
X1244600Y25400D01*
X1244600Y59143D01*
X1245477Y60019D01*
X1283208Y-13208D02*
X1174242Y-13208D01*
X1162050Y-25400D01*
X1162050Y-101600D01*
X1181100Y-120650D01*
X1207168Y-120650D01*
X1208518Y-119300D01*
X1174242Y-13208D02*
X1110742Y-13208D01*
X1098550Y-25400D01*
D17*
X1098550Y-25400D03*
X1028700Y-25400D03*
D18*
X101600Y-444500D02*
X38100Y-508000D01*
X38100Y-596900D01*
X101600Y-444500D02*
X127000Y-444500D01*
X127000Y-355600D01*
X88900Y-317500D01*
X88900Y-266700D01*
X101600Y-254000D01*
X127000Y-254000D01*
X127000Y-165100D01*
X88900Y-127000D01*
X88900Y-76200D01*
X101600Y-63500D01*
X127000Y-63500D01*
X38100Y-596900D02*
X76200Y-635000D01*
X127000Y-635000D01*
X127000Y-63500D02*
X177800Y-12700D01*
X215900Y-12700D01*
X254000Y-50800D01*
X254000Y-101600D01*
X279400Y-127000D01*
X368300Y-127000D01*
X439092Y-56208D01*
X889842Y-56208D02*
X897134Y-63500D01*
X965200Y-63500D01*
X889842Y-56208D02*
X439092Y-56208D01*
X965200Y-63500D02*
X1028700Y-127000D01*
X1028700Y-330200D01*
X1066800Y-368300D01*
X1092200Y-368300D01*
X1117600Y-393700D01*
X1193800Y-393700D01*
D17*
X1193800Y-393700D03*
D18*
X762000Y-152400D02*
X723900Y-114300D01*
X762000Y-152400D02*
X762000Y-292100D01*
X749300Y-304800D01*
X723900Y-304800D01*
X749300Y-304800D02*
X762000Y-317500D01*
X762000Y-473763D01*
X744881Y-490881D01*
X740463Y-495300D01*
X723900Y-495300D01*
X744881Y-490881D02*
X762000Y-508000D01*
X762000Y-673100D01*
X749300Y-685800D01*
X723900Y-685800D01*
X762000Y-673100D02*
X774700Y-673100D01*
X833820Y-732220D01*
X918780Y-732220D01*
X977900Y-673100D01*
X1689100Y-673100D01*
X1792567Y-641350D02*
X1826632Y-607285D01*
X1826632Y-385182D01*
X1708150Y-654050D02*
X1689100Y-673100D01*
X1708150Y-654050D02*
X1746250Y-654050D01*
X1758950Y-641350D01*
X1792567Y-641350D01*
X1826632Y-385182D02*
X1771650Y-330200D01*
X1771650Y-184150D01*
D17*
X1771650Y-184150D03*
D18*
X1384300Y-203200D02*
X1384300Y-317500D01*
X1422400Y-355600D01*
X1422400Y-393700D01*
X1409700Y-406400D01*
X1397000Y-406400D01*
X1422400Y-571500D02*
X1409700Y-584200D01*
X1384300Y-584200D01*
X1397000Y-406400D02*
X1384300Y-393700D01*
X1409700Y-406400D02*
X1422400Y-419100D01*
X1422400Y-571500D01*
X990600Y-723900D02*
X977900Y-711200D01*
X1837808Y-270392D02*
X1837808Y-136008D01*
X1828800Y-127000D01*
X1767808Y-63334D02*
X1767808Y-60012D01*
X1733854Y-26058D01*
X1828800Y-124326D02*
X1828800Y-127000D01*
X1828800Y-124326D02*
X1767808Y-63334D01*
X1837808Y-270392D02*
X1817488Y-290712D01*
X1822285Y-641185D02*
X1818818Y-644652D01*
X1822285Y-641185D02*
X1837808Y-625662D01*
X1730574Y-723900D02*
X990600Y-723900D01*
X1786666Y-667808D02*
X1795662Y-667808D01*
X1818818Y-644652D01*
X1786666Y-667808D02*
X1730574Y-723900D01*
X1837808Y-380553D02*
X1817488Y-360233D01*
X1817488Y-290712D01*
X1837808Y-380553D02*
X1837808Y-625662D01*
X1752464Y-358172D02*
X1752464Y-349468D01*
X1733854Y-330858D01*
X1707092Y-538100D02*
X1689100Y-538100D01*
X1707092Y-538100D02*
X1709252Y-535940D01*
X1724660Y-535940D01*
X1779896Y-480704D01*
X1779896Y-385604D01*
X1752464Y-358172D01*
X1799187Y-567458D02*
X1760622Y-606023D01*
X1799187Y-567458D02*
X1805196Y-567458D01*
X1775692Y-567458D01*
X1720850Y-622300D01*
X1695450Y-622300D01*
X1682750Y-609600D01*
X1682750Y-565150D01*
X1670050Y-552450D01*
X1670050Y-520700D01*
X1682750Y-508000D01*
X1739900Y-508000D01*
X1758950Y-488950D01*
X1758950Y-450850D01*
X1740558Y-432458D01*
X1733854Y-432458D01*
X1244600Y-317500D02*
X1244600Y-177800D01*
X1384300Y-38100D01*
X1644296Y-38100D01*
X1708454Y-102258D01*
D17*
X1193800Y-350020D03*
D18*
X1212080Y-350020D02*
X1244600Y-317500D01*
X1212080Y-350020D02*
X1193800Y-350020D01*
X1130300Y-142682D02*
X1056118Y-68500D01*
X1130300Y-142682D02*
X1130300Y-304800D01*
X1206500Y-381000D01*
D17*
X1206500Y-381000D03*
D18*
X1155700Y-142682D02*
X1056118Y-43100D01*
D17*
X1231900Y-360962D03*
D18*
X1155700Y-322297D02*
X1155700Y-142682D01*
X1155700Y-322297D02*
X1194365Y-360962D01*
X1231900Y-360962D01*
D17*
X1143000Y-419100D03*
D18*
X1092200Y-469900D01*
X1054100Y-469900D01*
D17*
X1054100Y-469900D03*
X1143000Y-469900D03*
D18*
X1371600Y-241300D01*
D17*
X1371600Y-241300D03*
D18*
X1655670Y-30070D02*
X1721780Y36041D01*
X1721780Y96272D01*
X1270000Y-108618D02*
X1267159Y-111459D01*
X1208518Y-170100D01*
X1270000Y-108618D02*
X1348549Y-30070D01*
X1655670Y-30070D01*
X1130300Y-63500D02*
X1130300Y-66482D01*
D17*
X1130300Y-63500D03*
D18*
X532841Y-7343D02*
X532841Y44408D01*
X995962Y-45438D02*
X1028700Y-12700D01*
X897751Y-45438D02*
X895313Y-43000D01*
X568497Y-43000D02*
X532841Y-7343D01*
X568497Y-43000D02*
X895313Y-43000D01*
X897751Y-45438D02*
X995962Y-45438D01*
X1095511Y-32738D02*
X1099538Y-32738D01*
X1130300Y-63500D01*
X1075473Y-12700D02*
X1028700Y-12700D01*
X1075473Y-12700D02*
X1095511Y-32738D01*
X558241Y-24841D02*
X558241Y44408D01*
D17*
X990600Y-38100D03*
D18*
X898315Y-38100D02*
X897627Y-37412D01*
X898315Y-38100D02*
X990600Y-38100D01*
X570812Y-37412D02*
X558241Y-24841D01*
X570812Y-37412D02*
X897627Y-37412D01*
X583641Y-12141D02*
X583641Y44408D01*
X583641Y-12141D02*
X596900Y-25400D01*
D17*
X965200Y-25400D03*
D18*
X596900Y-25400D01*
D17*
X977900Y-25400D03*
D18*
X609041Y13259D02*
X609041Y44408D01*
X609041Y13259D02*
X635000Y-12700D01*
X965200Y-12700D01*
X977900Y-25400D01*
X1805196Y-449858D02*
X1805196Y-531604D01*
X1778000Y-558800D01*
X1746415Y-558800D01*
X1739839Y-552225D01*
X558800Y-304800D02*
X533400Y-304800D01*
X558800Y-304800D02*
X571500Y-317500D01*
X571500Y-482600D01*
X558800Y-495300D01*
X533400Y-495300D01*
X558800Y-304800D02*
X571500Y-292100D01*
X571500Y-152400D01*
X533400Y-114300D01*
X558800Y-495300D02*
X571500Y-508000D01*
X571500Y-673100D01*
X558800Y-685800D01*
X533400Y-685800D01*
X558800Y-685800D02*
X558800Y-699708D01*
X596900Y-737808D01*
X925892Y-737808D01*
X1733854Y-127658D02*
X1803400Y-197204D01*
X1832220Y-609600D02*
X1832220Y-611438D01*
X967209Y-696491D02*
X925892Y-737808D01*
X967209Y-696491D02*
X1714500Y-696491D01*
X1763291Y-647700D01*
X1794120Y-647700D01*
X1832220Y-609600D01*
X1832220Y-382867D01*
X1803400Y-354047D01*
X1803400Y-197204D01*
X939800Y-139700D02*
X914400Y-114300D01*
X939800Y-139700D02*
X939800Y-241300D01*
X952500Y-254000D01*
X952500Y-292100D01*
X939800Y-304800D01*
X914400Y-304800D01*
X939800Y-304800D02*
X952500Y-317500D01*
X952500Y-482600D01*
X939800Y-495300D01*
X914400Y-495300D01*
X939800Y-495300D02*
X952500Y-508000D01*
X952500Y-673100D01*
X939800Y-685800D01*
X914400Y-685800D01*
D17*
X1155700Y-469900D03*
D18*
X1371600Y-254000D01*
D17*
X1371600Y-254000D03*
D18*
X1651000Y-254000D02*
X1702458Y-305458D01*
X1708454Y-305458D01*
X1016000Y-241300D02*
X965200Y-190500D01*
X1016000Y-241300D02*
X1016000Y-342900D01*
X1257300Y-186637D02*
X1329637Y-114300D01*
X1371600Y-114300D01*
X1435100Y-177800D01*
X1435100Y-241300D01*
X1074138Y-401038D02*
X1016000Y-342900D01*
X1074138Y-401038D02*
X1203959Y-401038D01*
X1257300Y-347697D01*
X1257300Y-186637D01*
X1673667Y-314767D02*
X1673667Y-413763D01*
X1673667Y-314767D02*
X1625600Y-266700D01*
X1625600Y-241300D01*
X1638300Y-228600D01*
X1663700Y-228600D01*
X1676400Y-241300D01*
X1676400Y-254000D01*
X1702458Y-280058D01*
X1708454Y-280058D01*
X1054900Y-647700D02*
X978700Y-571500D01*
X1054900Y-647700D02*
X1397000Y-647700D01*
X1435100Y-609600D01*
X1625600Y-609112D02*
X1648986Y-585726D01*
X1648986Y-297989D01*
X1620012Y-269015D01*
X1620012Y-238985D01*
X1635985Y-223012D02*
X1666015Y-223012D01*
X1635985Y-223012D02*
X1620012Y-238985D01*
X1672261Y-229258D02*
X1708454Y-229258D01*
X1672261Y-229258D02*
X1666015Y-223012D01*
X1608192Y-376871D02*
X1591363Y-393700D01*
X1574800Y-393700D01*
X1591363Y-393700D02*
X1608192Y-410529D01*
X1608192Y-567371D01*
X1591363Y-584200D01*
X1574800Y-584200D01*
X1608192Y-376871D02*
X1608192Y-345040D01*
X1603652Y-340500D01*
X1603652Y-232052D02*
X1574800Y-203200D01*
X1603652Y-232052D02*
X1603652Y-340500D01*
X1778372Y-372961D02*
X1817996Y-412585D01*
X1635252Y-644652D02*
X1574800Y-584200D01*
X1635252Y-644652D02*
X1739900Y-644652D01*
X1741764Y-644652D01*
X1786976Y-599440D02*
X1788355Y-599440D01*
X1817996Y-569799D01*
X1817996Y-412585D01*
X1765547Y-619005D02*
X1739900Y-644652D01*
X1765547Y-619005D02*
X1766000Y-619005D01*
X1785564Y-599440D02*
X1786976Y-599440D01*
X1785564Y-599440D02*
X1766000Y-619005D01*
X1778372Y-372961D02*
X1778372Y-349976D01*
X1733854Y-305458D01*
X284100Y-38100D02*
X281750Y-40450D01*
D16*
X279400Y-42800D02*
X279400Y-88900D01*
X279400Y-42800D02*
X281750Y-40450D01*
D18*
X284100Y-228600D02*
X281750Y-230950D01*
D16*
X279400Y-233300D02*
X279400Y-279400D01*
X279400Y-233300D02*
X281750Y-230950D01*
D18*
X284100Y-419100D02*
X281750Y-421450D01*
D16*
X279400Y-423800D02*
X279400Y-469900D01*
X279400Y-423800D02*
X281750Y-421450D01*
D18*
X284100Y-609600D02*
X281750Y-611950D01*
D16*
X279400Y-614300D02*
X279400Y-660400D01*
X279400Y-614300D02*
X281750Y-611950D01*
D18*
X1460500Y-152400D02*
X1549400Y-63500D01*
X1460500Y-152400D02*
X1460500Y-609600D01*
X1511300Y-660400D01*
X1684400Y-660400D01*
X1689100Y-655700D01*
M02*
