G04 EAGLE Gerber RS-274X export*
G75*
%MOMM*%
%FSLAX34Y34*%
%LPD*%
%IN*%
%IPPOS*%
%AMOC8*
5,1,8,0,0,1.08239X$1,22.5*%
G01*
G04 Define Apertures*
%ADD10C,0.254000*%
D10*
X0Y-700000D02*
X190Y-704358D01*
X760Y-708682D01*
X1704Y-712941D01*
X3015Y-717101D01*
X4685Y-721131D01*
X6699Y-725000D01*
X9042Y-728679D01*
X11698Y-732139D01*
X14645Y-735355D01*
X17861Y-738302D01*
X21321Y-740958D01*
X25000Y-743301D01*
X28869Y-745315D01*
X32899Y-746985D01*
X37059Y-748296D01*
X41318Y-749240D01*
X45642Y-749810D01*
X50000Y-750000D01*
X1800000Y-750000D01*
X1804358Y-749810D01*
X1808682Y-749240D01*
X1812941Y-748296D01*
X1817101Y-746985D01*
X1821131Y-745315D01*
X1825000Y-743301D01*
X1828679Y-740958D01*
X1832139Y-738302D01*
X1835355Y-735355D01*
X1838302Y-732139D01*
X1840958Y-728679D01*
X1843301Y-725000D01*
X1845315Y-721131D01*
X1846985Y-717101D01*
X1848296Y-712941D01*
X1849240Y-708682D01*
X1849810Y-704358D01*
X1850000Y-700000D01*
X1850000Y-50000D01*
X1849810Y-45642D01*
X1849240Y-41318D01*
X1848296Y-37059D01*
X1846985Y-32899D01*
X1845315Y-28869D01*
X1843301Y-25000D01*
X1840958Y-21321D01*
X1838302Y-17861D01*
X1835355Y-14645D01*
X1832139Y-11698D01*
X1828679Y-9042D01*
X1825000Y-6699D01*
X1821131Y-4685D01*
X1817101Y-3015D01*
X1812941Y-1704D01*
X1808682Y-760D01*
X1804358Y-190D01*
X1800000Y0D01*
X1800000Y105000D01*
X1799924Y106743D01*
X1799696Y108473D01*
X1799319Y110176D01*
X1798794Y111840D01*
X1798126Y113452D01*
X1797321Y115000D01*
X1796383Y116472D01*
X1795321Y117856D01*
X1794142Y119142D01*
X1792856Y120321D01*
X1791472Y121383D01*
X1790000Y122321D01*
X1788452Y123126D01*
X1786840Y123794D01*
X1785176Y124319D01*
X1783473Y124696D01*
X1781743Y124924D01*
X1780000Y125000D01*
X1670000Y125000D01*
X1668257Y124924D01*
X1666527Y124696D01*
X1664824Y124319D01*
X1663160Y123794D01*
X1661548Y123126D01*
X1660000Y122321D01*
X1658528Y121383D01*
X1657144Y120321D01*
X1655858Y119142D01*
X1654679Y117856D01*
X1653617Y116472D01*
X1652680Y115000D01*
X1651874Y113452D01*
X1651206Y111840D01*
X1650681Y110176D01*
X1650304Y108473D01*
X1650076Y106743D01*
X1650000Y105000D01*
X1650000Y0D01*
X1450000Y0D01*
X1450000Y60000D01*
X1449848Y63486D01*
X1449392Y66946D01*
X1448637Y70353D01*
X1447588Y73681D01*
X1446252Y76905D01*
X1444641Y80000D01*
X1442766Y82943D01*
X1440642Y85712D01*
X1438284Y88284D01*
X1435712Y90642D01*
X1432943Y92766D01*
X1430000Y94641D01*
X1426905Y96252D01*
X1423681Y97588D01*
X1420353Y98637D01*
X1416946Y99392D01*
X1413486Y99848D01*
X1410000Y100000D01*
X1240000Y100000D01*
X1236514Y99848D01*
X1233054Y99392D01*
X1229647Y98637D01*
X1226319Y97588D01*
X1223095Y96252D01*
X1220000Y94641D01*
X1217057Y92766D01*
X1214289Y90642D01*
X1211716Y88284D01*
X1209358Y85712D01*
X1207234Y82943D01*
X1205359Y80000D01*
X1203748Y76905D01*
X1202412Y73681D01*
X1201363Y70353D01*
X1200608Y66946D01*
X1200152Y63486D01*
X1200000Y60000D01*
X1200000Y0D01*
X650000Y0D01*
X650000Y30000D01*
X649848Y33486D01*
X649392Y36946D01*
X648637Y40353D01*
X647588Y43681D01*
X646252Y46905D01*
X644641Y50000D01*
X642766Y52943D01*
X640642Y55712D01*
X638284Y58284D01*
X635712Y60642D01*
X632943Y62766D01*
X630000Y64641D01*
X626905Y66252D01*
X623681Y67588D01*
X620353Y68637D01*
X616946Y69392D01*
X613486Y69848D01*
X610000Y70000D01*
X330000Y70000D01*
X326514Y69848D01*
X323054Y69392D01*
X319647Y68637D01*
X316319Y67588D01*
X313095Y66252D01*
X310000Y64641D01*
X307057Y62766D01*
X304289Y60642D01*
X301716Y58284D01*
X299358Y55712D01*
X297234Y52943D01*
X295359Y50000D01*
X293748Y46905D01*
X292412Y43681D01*
X291363Y40353D01*
X290608Y36946D01*
X290152Y33486D01*
X290000Y30000D01*
X290000Y0D01*
X50000Y0D01*
X45642Y-190D01*
X41318Y-760D01*
X37059Y-1704D01*
X32899Y-3015D01*
X28869Y-4685D01*
X25000Y-6699D01*
X21321Y-9042D01*
X17861Y-11698D01*
X14645Y-14645D01*
X11698Y-17861D01*
X9042Y-21321D01*
X6699Y-25000D01*
X4685Y-28869D01*
X3015Y-32899D01*
X1704Y-37059D01*
X760Y-41318D01*
X190Y-45642D01*
X0Y-50000D01*
X0Y-700000D01*
M02*
