G04 EAGLE Gerber RS-274X export*
G75*
%MOMM*%
%FSLAX34Y34*%
%LPD*%
%INSoldermask Top*%
%IPPOS*%
%AMOC8*
5,1,8,0,0,1.08239X$1,22.5*%
G01*
G04 Define Apertures*
%ADD10C,4.203200*%
%ADD11C,1.784200*%
%ADD12C,1.727200*%
%ADD13C,2.082800*%
%ADD14C,1.633200*%
%ADD15C,1.711200*%
%ADD16C,2.743200*%
%ADD17C,1.903200*%
%ADD18C,4.303200*%
%ADD19C,0.959600*%
D10*
X1800000Y-50000D03*
X50000Y-700000D03*
X50000Y-50000D03*
X1800000Y-700000D03*
D11*
X279400Y-88900D03*
X304800Y-88900D03*
X279400Y-279400D03*
X304800Y-279400D03*
X279400Y-469900D03*
X304800Y-469900D03*
X279400Y-660400D03*
X304800Y-660400D03*
X1549400Y-63500D03*
X1524000Y-63500D03*
D12*
X431241Y36788D02*
X431241Y52028D01*
X456641Y52028D02*
X456641Y36788D01*
X482041Y36788D02*
X482041Y52028D01*
X507441Y52028D02*
X507441Y36788D01*
X532841Y36788D02*
X532841Y52028D01*
X558241Y52028D02*
X558241Y36788D01*
X583641Y36788D02*
X583641Y52028D01*
X609041Y52028D02*
X609041Y36788D01*
D13*
X1733854Y-483258D03*
X1708454Y-483258D03*
X1733854Y-457858D03*
X1708454Y-457858D03*
X1733854Y-432458D03*
X1708454Y-432458D03*
X1733854Y-407058D03*
X1708454Y-407058D03*
X1733854Y-381658D03*
X1708454Y-381658D03*
X1733854Y-356258D03*
X1708454Y-356258D03*
X1733854Y-330858D03*
X1708454Y-330858D03*
X1733854Y-305458D03*
X1708454Y-305458D03*
X1733854Y-280058D03*
X1708454Y-280058D03*
X1733854Y-254658D03*
X1708454Y-254658D03*
X1733854Y-229258D03*
X1708454Y-229258D03*
X1733854Y-203858D03*
X1708454Y-203858D03*
X1733854Y-178458D03*
X1708454Y-178458D03*
X1733854Y-153058D03*
X1708454Y-153058D03*
X1733854Y-127658D03*
X1708454Y-127658D03*
X1733854Y-102258D03*
X1708454Y-102258D03*
X1733854Y-76858D03*
X1708454Y-76858D03*
X1733854Y-51458D03*
X1708454Y-51458D03*
X1733854Y-26058D03*
X1708454Y-26058D03*
X1733854Y-658D03*
X1708454Y-658D03*
D12*
X1220077Y52399D02*
X1220077Y67639D01*
X1245477Y67639D02*
X1245477Y52399D01*
X1270877Y52399D02*
X1270877Y67639D01*
X1296277Y67639D02*
X1296277Y52399D01*
X1321677Y52399D02*
X1321677Y67639D01*
X1670980Y88652D02*
X1670980Y103892D01*
X1696380Y103892D02*
X1696380Y88652D01*
X1721780Y88652D02*
X1721780Y103892D01*
X1747180Y103892D02*
X1747180Y88652D01*
X1772580Y88652D02*
X1772580Y103892D01*
D11*
X1739839Y-552225D03*
X1739839Y-577625D03*
D14*
X1805196Y-567458D03*
X1805196Y-449858D03*
D15*
X1056118Y-43100D03*
X1056118Y-68500D03*
X1056118Y-93900D03*
X1056118Y-119300D03*
X1056118Y-144700D03*
X1056118Y-170100D03*
X1056118Y-195500D03*
X1056118Y-220900D03*
X1056118Y-246300D03*
X1056118Y-271700D03*
X1056118Y-297100D03*
X1056118Y-322500D03*
X1208518Y-322500D03*
X1208518Y-297100D03*
X1208518Y-271700D03*
X1208518Y-246300D03*
X1208518Y-220900D03*
X1208518Y-195500D03*
X1208518Y-170100D03*
X1208518Y-144700D03*
X1208518Y-119300D03*
X1208518Y-93900D03*
X1208518Y-68500D03*
X1208518Y-43100D03*
D14*
X401700Y-609600D03*
X284100Y-609600D03*
X1689100Y-538100D03*
X1689100Y-655700D03*
X401700Y-419100D03*
X284100Y-419100D03*
X401700Y-228600D03*
X284100Y-228600D03*
X401700Y-38100D03*
X284100Y-38100D03*
D16*
X127000Y-63500D03*
X190500Y-38100D03*
D17*
X114300Y-88900D03*
X215900Y-88900D03*
D18*
X165100Y-88900D03*
D16*
X533400Y-114300D03*
X469900Y-139700D03*
D17*
X546100Y-88900D03*
X444500Y-88900D03*
D18*
X495300Y-88900D03*
D16*
X723900Y-114300D03*
X660400Y-139700D03*
D17*
X736600Y-88900D03*
X635000Y-88900D03*
D18*
X685800Y-88900D03*
D16*
X914400Y-114300D03*
X850900Y-139700D03*
D17*
X927100Y-88900D03*
X825500Y-88900D03*
D18*
X876300Y-88900D03*
D16*
X1384300Y-203200D03*
X1320800Y-228600D03*
D17*
X1397000Y-177800D03*
X1295400Y-177800D03*
D18*
X1346200Y-177800D03*
D16*
X1574800Y-203200D03*
X1511300Y-228600D03*
D17*
X1587500Y-177800D03*
X1485900Y-177800D03*
D18*
X1536700Y-177800D03*
D16*
X127000Y-254000D03*
X190500Y-228600D03*
D17*
X114300Y-279400D03*
X215900Y-279400D03*
D18*
X165100Y-279400D03*
D16*
X533400Y-304800D03*
X469900Y-330200D03*
D17*
X546100Y-279400D03*
X444500Y-279400D03*
D18*
X495300Y-279400D03*
D16*
X723900Y-304800D03*
X660400Y-330200D03*
D17*
X736600Y-279400D03*
X635000Y-279400D03*
D18*
X685800Y-279400D03*
D16*
X914400Y-304800D03*
X850900Y-330200D03*
D17*
X927100Y-279400D03*
X825500Y-279400D03*
D18*
X876300Y-279400D03*
D16*
X1384300Y-393700D03*
X1320800Y-419100D03*
D17*
X1397000Y-368300D03*
X1295400Y-368300D03*
D18*
X1346200Y-368300D03*
D16*
X1574800Y-393700D03*
X1511300Y-419100D03*
D17*
X1587500Y-368300D03*
X1485900Y-368300D03*
D18*
X1536700Y-368300D03*
D16*
X1574800Y-584200D03*
X1511300Y-609600D03*
D17*
X1587500Y-558800D03*
X1485900Y-558800D03*
D18*
X1536700Y-558800D03*
D16*
X1384300Y-584200D03*
X1320800Y-609600D03*
D17*
X1397000Y-558800D03*
X1295400Y-558800D03*
D18*
X1346200Y-558800D03*
D16*
X914400Y-495300D03*
X850900Y-520700D03*
D17*
X927100Y-469900D03*
X825500Y-469900D03*
D18*
X876300Y-469900D03*
D16*
X723900Y-495300D03*
X660400Y-520700D03*
D17*
X736600Y-469900D03*
X635000Y-469900D03*
D18*
X685800Y-469900D03*
D16*
X533400Y-495300D03*
X469900Y-520700D03*
D17*
X546100Y-469900D03*
X444500Y-469900D03*
D18*
X495300Y-469900D03*
D16*
X127000Y-444500D03*
X190500Y-419100D03*
D17*
X114300Y-469900D03*
X215900Y-469900D03*
D18*
X165100Y-469900D03*
D16*
X124460Y-635000D03*
X187960Y-609600D03*
D17*
X111760Y-660400D03*
X213360Y-660400D03*
D18*
X162560Y-660400D03*
D16*
X533400Y-685800D03*
X469900Y-711200D03*
D17*
X546100Y-660400D03*
X444500Y-660400D03*
D18*
X495300Y-660400D03*
D16*
X723900Y-685800D03*
X660400Y-711200D03*
D17*
X736600Y-660400D03*
X635000Y-660400D03*
D18*
X685800Y-660400D03*
D16*
X914400Y-685800D03*
X850900Y-711200D03*
D17*
X927100Y-660400D03*
X825500Y-660400D03*
D18*
X876300Y-660400D03*
D15*
X71200Y-88900D03*
X71200Y-190500D03*
X596900Y-76200D03*
X596900Y-177800D03*
X787400Y-88900D03*
X787400Y-190500D03*
X71200Y-266700D03*
X71200Y-368300D03*
X596900Y-279400D03*
X596900Y-381000D03*
X787400Y-279400D03*
X787400Y-381000D03*
X965200Y-88900D03*
X965200Y-190500D03*
X977900Y-279400D03*
X977900Y-381000D03*
X1435100Y-139700D03*
X1435100Y-241300D03*
X1435100Y-330200D03*
X1435100Y-431800D03*
X1651000Y-152400D03*
X1651000Y-254000D03*
X1628333Y-322837D03*
X1673667Y-413763D03*
X1625600Y-507512D03*
X1625600Y-609112D03*
X1435100Y-508000D03*
X1435100Y-609600D03*
X978700Y-469900D03*
X978700Y-571500D03*
X783764Y-469900D03*
X783764Y-571500D03*
X603079Y-470700D03*
X603079Y-572300D03*
X68500Y-457200D03*
X68500Y-558800D03*
X249000Y-732300D03*
X350600Y-732300D03*
X596900Y-605300D03*
X596900Y-706900D03*
X787400Y-609600D03*
X787400Y-711200D03*
X977900Y-609600D03*
X977900Y-711200D03*
D13*
X1760622Y-606023D03*
X1760282Y-671046D03*
X1715411Y-605786D03*
X1715070Y-670809D03*
D19*
X1670050Y12700D03*
X1098550Y-25400D03*
X1028700Y-25400D03*
X1193800Y-393700D03*
X1771650Y-184150D03*
X1193800Y-350020D03*
X1206500Y-381000D03*
X1231900Y-360962D03*
X1143000Y-419100D03*
X1054100Y-469900D03*
X1143000Y-469900D03*
X1371600Y-241300D03*
X1130300Y-63500D03*
X990600Y-38100D03*
X965200Y-25400D03*
X977900Y-25400D03*
X1155700Y-469900D03*
X1371600Y-254000D03*
M02*
